<svg width="473" height="630" viewBox="0 0 473 630" fill="none" xmlns="http://www.w3.org/2000/svg">
<rect width="472.5" height="630" fill="white"/>
<path d="M60.9724 264.496H49.618C49.4106 263.027 48.9872 261.722 48.3477 260.582C47.7083 259.424 46.8874 258.439 45.885 257.626C44.8827 256.814 43.7248 256.192 42.4113 255.76C41.1151 255.328 39.7066 255.112 38.1858 255.112C35.4379 255.112 33.0444 255.795 31.0051 257.16C28.9658 258.508 27.3844 260.478 26.2611 263.07C25.1378 265.645 24.5761 268.773 24.5761 272.455C24.5761 276.239 25.1378 279.419 26.2611 281.994C27.4017 284.569 28.9917 286.514 31.031 287.827C33.0703 289.141 35.4293 289.797 38.108 289.797C39.6116 289.797 41.0028 289.598 42.2817 289.201C43.5779 288.804 44.7271 288.225 45.7295 287.464C46.7319 286.686 47.5614 285.745 48.2181 284.638C48.8921 283.532 49.3588 282.271 49.618 280.854L60.9724 280.906C60.6786 283.342 59.9441 285.693 58.7689 287.957C57.611 290.203 56.047 292.217 54.0768 293.997C52.1239 295.76 49.7908 297.159 47.0775 298.196C44.3815 299.216 41.3312 299.726 37.9266 299.726C33.1913 299.726 28.9571 298.654 25.2242 296.511C21.5085 294.368 18.5705 291.266 16.4102 287.205C14.2673 283.144 13.1958 278.227 13.1958 272.455C13.1958 266.665 14.2845 261.74 16.4621 257.678C18.6396 253.617 21.5949 250.523 25.3279 248.398C29.0608 246.255 33.2604 245.183 37.9266 245.183C41.0028 245.183 43.8544 245.615 46.4813 246.479C49.1254 247.344 51.4672 248.605 53.5065 250.264C55.5458 251.906 57.2049 253.919 58.4838 256.304C59.7799 258.689 60.6095 261.42 60.9724 264.496ZM117.809 272.455C117.809 278.244 116.712 283.17 114.517 287.231C112.339 291.292 109.367 294.394 105.599 296.537C101.849 298.663 97.6323 299.726 92.9488 299.726C88.2307 299.726 83.9966 298.654 80.2464 296.511C76.4961 294.368 73.5322 291.266 71.3547 287.205C69.1771 283.144 68.0883 278.227 68.0883 272.455C68.0883 266.665 69.1771 261.74 71.3547 257.678C73.5322 253.617 76.4961 250.523 80.2464 248.398C83.9966 246.255 88.2307 245.183 92.9488 245.183C97.6323 245.183 101.849 246.255 105.599 248.398C109.367 250.523 112.339 253.617 114.517 257.678C116.712 261.74 117.809 266.665 117.809 272.455ZM106.429 272.455C106.429 268.704 105.867 265.542 104.744 262.967C103.638 260.392 102.074 258.439 100.052 257.108C98.0297 255.777 95.6621 255.112 92.9488 255.112C90.2355 255.112 87.8678 255.777 85.8458 257.108C83.8238 258.439 82.2511 260.392 81.1278 262.967C80.0217 265.542 79.4687 268.704 79.4687 272.455C79.4687 276.205 80.0217 279.367 81.1278 281.942C82.2511 284.518 83.8238 286.47 85.8458 287.801C87.8678 289.132 90.2355 289.797 92.9488 289.797C95.6621 289.797 98.0297 289.132 100.052 287.801C102.074 286.47 103.638 284.518 104.744 281.942C105.867 279.367 106.429 276.205 106.429 272.455ZM126.124 245.909H139.967L154.588 281.58H155.21L169.831 245.909H183.674V299H172.786V264.444H172.345L158.606 298.741H151.192L137.453 264.315H137.012V299H126.124V245.909ZM192.922 245.909H206.765L221.386 281.58H222.008L236.629 245.909H250.472V299H239.584V264.444H239.143L225.404 298.741H217.99L204.25 264.315H203.81V299H192.922V245.909ZM270.945 245.909V299H259.72V245.909H270.945ZM278.158 255.164V245.909H321.761V255.164H305.507V299H294.412V255.164H278.158ZM326.919 255.164V245.909H370.522V255.164H354.269V299H343.173V255.164H326.919ZM377.703 299V245.909H413.477V255.164H388.928V267.814H411.637V277.069H388.928V289.745H413.581V299H377.703ZM422.401 299V245.909H458.176V255.164H433.626V267.814H456.335V277.069H433.626V289.745H458.279V299H422.401ZM98.4996 333.909H112.343L126.963 369.58H127.586L142.206 333.909H156.049V387H145.162V352.444H144.721L130.981 386.741H123.567L109.828 352.315H109.387V387H98.4996V333.909ZM174.448 387H162.42L180.748 333.909H195.213L213.515 387H201.486L188.188 346.041H187.773L174.448 387ZM173.697 366.132H202.109V374.894H173.697V366.132ZM211.396 343.164V333.909H254.999V343.164H238.745V387H227.649V343.164H211.396ZM262.179 387V333.909H283.125C287.135 333.909 290.557 334.626 293.391 336.061C296.242 337.478 298.411 339.491 299.898 342.101C301.401 344.693 302.153 347.743 302.153 351.252C302.153 354.777 301.393 357.81 299.872 360.351C298.351 362.874 296.147 364.81 293.261 366.158C290.392 367.506 286.919 368.18 282.84 368.18H268.816V359.158H281.026C283.169 359.158 284.949 358.865 286.366 358.277C287.783 357.689 288.837 356.808 289.528 355.633C290.237 354.458 290.591 352.997 290.591 351.252C290.591 349.489 290.237 348.003 289.528 346.793C288.837 345.583 287.774 344.667 286.34 344.045C284.923 343.406 283.134 343.086 280.974 343.086H273.404V387H262.179ZM290.85 362.839L304.045 387H291.654L278.744 362.839H290.85ZM321.31 333.909V387H310.086V333.909H321.31ZM341.07 333.909L351.777 352.004H352.191L362.95 333.909H375.626L359.424 360.455L375.989 387H363.079L352.191 368.88H351.777L340.889 387H328.031L344.648 360.455L328.342 333.909H341.07Z" fill="black"/>
</svg>
