<svg width="2525" height="754" viewBox="0 0 2525 754" fill="none" xmlns="http://www.w3.org/2000/svg">
<g clip-path="url(#clip0_143_30)">
<rect width="2525" height="754" fill="#121629"/>
<rect y="-45" width="2525" height="799" fill="#121629"/>
<path d="M71.94 213.64V340H41.16V213.64H71.94ZM207.286 340H176.506L125.026 262.06V340H94.2459V213.64H125.026L176.506 291.94V213.64H207.286V340ZM320.498 213.64V238.3H287.018V340H256.238V238.3H222.758V213.64H320.498ZM400.385 340L374.105 292.3H366.725V340H335.945V213.64H387.605C397.565 213.64 406.025 215.38 412.985 218.86C420.065 222.34 425.345 227.14 428.825 233.26C432.305 239.26 434.045 245.98 434.045 253.42C434.045 261.82 431.645 269.32 426.845 275.92C422.165 282.52 415.205 287.2 405.965 289.96L435.125 340H400.385ZM366.725 270.52H385.805C391.445 270.52 395.645 269.14 398.405 266.38C401.285 263.62 402.725 259.72 402.725 254.68C402.725 249.88 401.285 246.1 398.405 243.34C395.645 240.58 391.445 239.2 385.805 239.2H366.725V270.52ZM513.127 341.26C501.247 341.26 490.327 338.5 480.367 332.98C470.527 327.46 462.667 319.78 456.787 309.94C451.027 299.98 448.147 288.82 448.147 276.46C448.147 264.1 451.027 253 456.787 243.16C462.667 233.32 470.527 225.64 480.367 220.12C490.327 214.6 501.247 211.84 513.127 211.84C525.007 211.84 535.867 214.6 545.707 220.12C555.667 225.64 563.467 233.32 569.107 243.16C574.867 253 577.747 264.1 577.747 276.46C577.747 288.82 574.867 299.98 569.107 309.94C563.347 319.78 555.547 327.46 545.707 332.98C535.867 338.5 525.007 341.26 513.127 341.26ZM513.127 313.18C523.207 313.18 531.247 309.82 537.247 303.1C543.367 296.38 546.427 287.5 546.427 276.46C546.427 265.3 543.367 256.42 537.247 249.82C531.247 243.1 523.207 239.74 513.127 239.74C502.927 239.74 494.767 243.04 488.647 249.64C482.647 256.24 479.647 265.18 479.647 276.46C479.647 287.62 482.647 296.56 488.647 303.28C494.767 309.88 502.927 313.18 513.127 313.18ZM642.211 213.64C655.531 213.64 667.171 216.28 677.131 221.56C687.091 226.84 694.771 234.28 700.171 243.88C705.691 253.36 708.451 264.34 708.451 276.82C708.451 289.18 705.691 300.16 700.171 309.76C694.771 319.36 687.031 326.8 676.951 332.08C666.991 337.36 655.411 340 642.211 340H594.871V213.64H642.211ZM640.231 313.36C651.871 313.36 660.931 310.18 667.411 303.82C673.891 297.46 677.131 288.46 677.131 276.82C677.131 265.18 673.891 256.12 667.411 249.64C660.931 243.16 651.871 239.92 640.231 239.92H625.651V313.36H640.231ZM755.892 213.64V289.24C755.892 296.8 757.752 302.62 761.472 306.7C765.192 310.78 770.652 312.82 777.852 312.82C785.052 312.82 790.572 310.78 794.412 306.7C798.252 302.62 800.172 296.8 800.172 289.24V213.64H830.952V289.06C830.952 300.34 828.552 309.88 823.752 317.68C818.952 325.48 812.472 331.36 804.312 335.32C796.272 339.28 787.272 341.26 777.312 341.26C767.352 341.26 758.412 339.34 750.492 335.5C742.692 331.54 736.512 325.66 731.952 317.86C727.392 309.94 725.112 300.34 725.112 289.06V213.64H755.892ZM847.346 276.64C847.346 264.16 850.046 253.06 855.446 243.34C860.846 233.5 868.346 225.88 877.946 220.48C887.666 214.96 898.646 212.2 910.886 212.2C925.886 212.2 938.726 216.16 949.406 224.08C960.086 232 967.226 242.8 970.826 256.48H936.986C934.466 251.2 930.866 247.18 926.186 244.42C921.626 241.66 916.406 240.28 910.526 240.28C901.046 240.28 893.366 243.58 887.486 250.18C881.606 256.78 878.666 265.6 878.666 276.64C878.666 287.68 881.606 296.5 887.486 303.1C893.366 309.7 901.046 313 910.526 313C916.406 313 921.626 311.62 926.186 308.86C930.866 306.1 934.466 302.08 936.986 296.8H970.826C967.226 310.48 960.086 321.28 949.406 329.2C938.726 337 925.886 340.9 910.886 340.9C898.646 340.9 887.666 338.2 877.946 332.8C868.346 327.28 860.846 319.66 855.446 309.94C850.046 300.22 847.346 289.12 847.346 276.64ZM1020.46 213.64V340H989.676V213.64H1020.46ZM1155.8 340H1125.02L1073.54 262.06V340H1042.76V213.64H1073.54L1125.02 291.94V213.64H1155.8V340ZM1261.99 253.6C1259.71 249.4 1256.41 246.22 1252.09 244.06C1247.89 241.78 1242.91 240.64 1237.15 240.64C1227.19 240.64 1219.21 243.94 1213.21 250.54C1207.21 257.02 1204.21 265.72 1204.21 276.64C1204.21 288.28 1207.33 297.4 1213.57 304C1219.93 310.48 1228.63 313.72 1239.67 313.72C1247.23 313.72 1253.59 311.8 1258.75 307.96C1264.03 304.12 1267.87 298.6 1270.27 291.4H1231.21V268.72H1298.17V297.34C1295.89 305.02 1291.99 312.16 1286.47 318.76C1281.07 325.36 1274.17 330.7 1265.77 334.78C1257.37 338.86 1247.89 340.9 1237.33 340.9C1224.85 340.9 1213.69 338.2 1203.85 332.8C1194.13 327.28 1186.51 319.66 1180.99 309.94C1175.59 300.22 1172.89 289.12 1172.89 276.64C1172.89 264.16 1175.59 253.06 1180.99 243.34C1186.51 233.5 1194.13 225.88 1203.85 220.48C1213.57 214.96 1224.67 212.2 1237.15 212.2C1252.27 212.2 1264.99 215.86 1275.31 223.18C1285.75 230.5 1292.65 240.64 1296.01 253.6H1261.99ZM1444.27 213.64V238.3H1410.79V340H1380.01V238.3H1346.53V213.64H1444.27ZM1569.15 213.64V340H1538.37V287.98H1490.49V340H1459.71V213.64H1490.49V263.14H1538.37V213.64H1569.15ZM1622.15 238.3V263.86H1663.37V287.62H1622.15V315.34H1668.77V340H1591.37V213.64H1668.77V238.3H1622.15ZM35.94 546.64C35.94 534.16 38.64 523.06 44.04 513.34C49.44 503.5 56.94 495.88 66.54 490.48C76.26 484.96 87.24 482.2 99.48 482.2C114.48 482.2 127.32 486.16 138 494.08C148.68 502 155.82 512.8 159.42 526.48H125.58C123.06 521.2 119.46 517.18 114.78 514.42C110.22 511.66 105 510.28 99.12 510.28C89.64 510.28 81.96 513.58 76.08 520.18C70.2 526.78 67.26 535.6 67.26 546.64C67.26 557.68 70.2 566.5 76.08 573.1C81.96 579.7 89.64 583 99.12 583C105 583 110.22 581.62 114.78 578.86C119.46 576.1 123.06 572.08 125.58 566.8H159.42C155.82 580.48 148.68 591.28 138 599.2C127.32 607 114.48 610.9 99.48 610.9C87.24 610.9 76.26 608.2 66.54 602.8C56.94 597.28 49.44 589.66 44.04 579.94C38.64 570.22 35.94 559.12 35.94 546.64ZM238.029 611.26C226.149 611.26 215.229 608.5 205.269 602.98C195.429 597.46 187.569 589.78 181.689 579.94C175.929 569.98 173.049 558.82 173.049 546.46C173.049 534.1 175.929 523 181.689 513.16C187.569 503.32 195.429 495.64 205.269 490.12C215.229 484.6 226.149 481.84 238.029 481.84C249.909 481.84 260.769 484.6 270.609 490.12C280.569 495.64 288.369 503.32 294.009 513.16C299.769 523 302.649 534.1 302.649 546.46C302.649 558.82 299.769 569.98 294.009 579.94C288.249 589.78 280.449 597.46 270.609 602.98C260.769 608.5 249.909 611.26 238.029 611.26ZM238.029 583.18C248.109 583.18 256.149 579.82 262.149 573.1C268.269 566.38 271.329 557.5 271.329 546.46C271.329 535.3 268.269 526.42 262.149 519.82C256.149 513.1 248.109 509.74 238.029 509.74C227.829 509.74 219.669 513.04 213.549 519.64C207.549 526.24 204.549 535.18 204.549 546.46C204.549 557.62 207.549 566.56 213.549 573.28C219.669 579.88 227.829 583.18 238.029 583.18ZM462.873 483.64V610H432.093V534.22L403.833 610H378.993L350.553 534.04V610H319.773V483.64H356.133L391.593 571.12L426.693 483.64H462.873ZM628.108 483.64V610H597.328V534.22L569.068 610H544.228L515.788 534.04V610H485.008V483.64H521.368L556.828 571.12L591.928 483.64H628.108ZM681.022 483.64V610H650.242V483.64H681.022ZM794.228 483.64V508.3H760.748V610H729.968V508.3H696.488V483.64H794.228ZM900.576 483.64V508.3H867.096V610H836.316V508.3H802.836V483.64H900.576ZM946.803 508.3V533.86H988.023V557.62H946.803V585.34H993.423V610H916.023V483.64H993.423V508.3H946.803ZM1044.19 508.3V533.86H1085.41V557.62H1044.19V585.34H1090.81V610H1013.41V483.64H1090.81V508.3H1044.19ZM1156.51 611.26C1147.27 611.26 1138.99 609.76 1131.67 606.76C1124.35 603.76 1118.47 599.32 1114.03 593.44C1109.71 587.56 1107.43 580.48 1107.19 572.2H1139.95C1140.43 576.88 1142.05 580.48 1144.81 583C1147.57 585.4 1151.17 586.6 1155.61 586.6C1160.17 586.6 1163.77 585.58 1166.41 583.54C1169.05 581.38 1170.37 578.44 1170.37 574.72C1170.37 571.6 1169.29 569.02 1167.13 566.98C1165.09 564.94 1162.51 563.26 1159.39 561.94C1156.39 560.62 1152.07 559.12 1146.43 557.44C1138.27 554.92 1131.61 552.4 1126.45 549.88C1121.29 547.36 1116.85 543.64 1113.13 538.72C1109.41 533.8 1107.55 527.38 1107.55 519.46C1107.55 507.7 1111.81 498.52 1120.33 491.92C1128.85 485.2 1139.95 481.84 1153.63 481.84C1167.55 481.84 1178.77 485.2 1187.29 491.92C1195.81 498.52 1200.37 507.76 1200.97 519.64H1167.67C1167.43 515.56 1165.93 512.38 1163.17 510.1C1160.41 507.7 1156.87 506.5 1152.55 506.5C1148.83 506.5 1145.83 507.52 1143.55 509.56C1141.27 511.48 1140.13 514.3 1140.13 518.02C1140.13 522.1 1142.05 525.28 1145.89 527.56C1149.73 529.84 1155.73 532.3 1163.89 534.94C1172.05 537.7 1178.65 540.34 1183.69 542.86C1188.85 545.38 1193.29 549.04 1197.01 553.84C1200.73 558.64 1202.59 564.82 1202.59 572.38C1202.59 579.58 1200.73 586.12 1197.01 592C1193.41 597.88 1188.13 602.56 1181.17 606.04C1174.21 609.52 1165.99 611.26 1156.51 611.26Z" fill="#B8C1EC"/>
<rect x="32" y="664" width="1789" height="28" fill="#B8C1EC"/>
<rect x="1924" y="-291.059" width="23.6353" height="1101.43" transform="rotate(-45 1924 -291.059)" fill="#2BA6C2"/>
<rect x="1868" y="-239.288" width="23.6353" height="1101.43" transform="rotate(-45 1868 -239.288)" fill="#CE3A3A"/>
<rect x="1804" y="-193.288" width="23.6353" height="1101.43" transform="rotate(-45 1804 -193.288)" fill="#0746D7"/>
<rect x="1752" y="-138.288" width="23.6353" height="1231" transform="rotate(-45 1752 -138.288)" fill="#A7560E"/>
<rect x="1988" y="-342.287" width="23.6353" height="1101.43" transform="rotate(-45 1988 -342.287)" fill="#EBB041"/>
<rect x="2031" y="-394.287" width="23.6353" height="1101.43" transform="rotate(-45 2031 -394.287)" fill="#D84BCE"/>
<rect x="1982.83" y="937.784" width="23.6353" height="1101.43" transform="rotate(-136.774 1982.83 937.784)" fill="#2BA6C2"/>
<rect x="2036.31" y="992.155" width="23.6353" height="1101.43" transform="rotate(-136.774 2036.31 992.155)" fill="#CE3A3A"/>
<rect x="2084.26" y="1054.7" width="23.6353" height="1101.43" transform="rotate(-136.774 2084.26 1054.7)" fill="#0746D7"/>
<rect x="2140.85" y="1104.97" width="23.6353" height="1231" transform="rotate(-136.774 2140.85 1104.97)" fill="#A7560E"/>
<rect x="1929.64" y="875.401" width="23.6353" height="1101.43" transform="rotate(-136.774 1929.64 875.401)" fill="#EBB041"/>
<rect x="1876.33" y="834.031" width="23.6353" height="1101.43" transform="rotate(-136.774 1876.33 834.031)" fill="#D84BCE"/>
</g>
<defs>
<clipPath id="clip0_143_30">
<rect width="2525" height="754" fill="white"/>
</clipPath>
</defs>
</svg>
