<svg width="1910" height="1063" viewBox="0 0 1910 1063" fill="none" xmlns="http://www.w3.org/2000/svg">
<rect width="1910" height="1062.53" fill="#FFBF00"/>
<rect x="567" y="301" width="699" height="564" fill="#B2530A"/>
<path d="M187.809 604L145.329 548.2V604H114.549V477.64H145.329V533.08L187.449 477.64H223.629L174.669 539.56L225.429 604H187.809ZM270.836 477.64V604H240.056V477.64H270.836ZM406.182 604H375.402L323.922 526.06V604H293.142V477.64H323.922L375.402 555.94V477.64H406.182V604ZM474.214 605.26C464.974 605.26 456.694 603.76 449.374 600.76C442.054 597.76 436.174 593.32 431.734 587.44C427.414 581.56 425.134 574.48 424.894 566.2H457.654C458.134 570.88 459.754 574.48 462.514 577C465.274 579.4 468.874 580.6 473.314 580.6C477.874 580.6 481.474 579.58 484.114 577.54C486.754 575.38 488.074 572.44 488.074 568.72C488.074 565.6 486.994 563.02 484.834 560.98C482.794 558.94 480.214 557.26 477.094 555.94C474.094 554.62 469.774 553.12 464.134 551.44C455.974 548.92 449.314 546.4 444.154 543.88C438.994 541.36 434.554 537.64 430.834 532.72C427.114 527.8 425.254 521.38 425.254 513.46C425.254 501.7 429.514 492.52 438.034 485.92C446.554 479.2 457.654 475.84 471.334 475.84C485.254 475.84 496.474 479.2 504.994 485.92C513.514 492.52 518.074 501.76 518.674 513.64H485.374C485.134 509.56 483.634 506.38 480.874 504.1C478.114 501.7 474.574 500.5 470.254 500.5C466.534 500.5 463.534 501.52 461.254 503.56C458.974 505.48 457.834 508.3 457.834 512.02C457.834 516.1 459.754 519.28 463.594 521.56C467.434 523.84 473.434 526.3 481.594 528.94C489.754 531.7 496.354 534.34 501.394 536.86C506.554 539.38 510.994 543.04 514.714 547.84C518.434 552.64 520.294 558.82 520.294 566.38C520.294 573.58 518.434 580.12 514.714 586C511.114 591.88 505.834 596.56 498.874 600.04C491.914 603.52 483.694 605.26 474.214 605.26ZM648.676 477.64V604H617.896V551.98H570.016V604H539.236V477.64H570.016V527.14H617.896V477.64H648.676ZM749.556 581.68H702.396L694.836 604H662.616L708.336 477.64H743.976L789.696 604H757.116L749.556 581.68ZM741.636 557.92L725.976 511.66L710.496 557.92H741.636ZM849.331 605.26C840.091 605.26 831.811 603.76 824.491 600.76C817.171 597.76 811.291 593.32 806.851 587.44C802.531 581.56 800.251 574.48 800.011 566.2H832.771C833.251 570.88 834.871 574.48 837.631 577C840.391 579.4 843.991 580.6 848.431 580.6C852.991 580.6 856.591 579.58 859.231 577.54C861.871 575.38 863.191 572.44 863.191 568.72C863.191 565.6 862.111 563.02 859.951 560.98C857.911 558.94 855.331 557.26 852.211 555.94C849.211 554.62 844.891 553.12 839.251 551.44C831.091 548.92 824.431 546.4 819.271 543.88C814.111 541.36 809.671 537.64 805.951 532.72C802.231 527.8 800.371 521.38 800.371 513.46C800.371 501.7 804.631 492.52 813.151 485.92C821.671 479.2 832.771 475.84 846.451 475.84C860.371 475.84 871.591 479.2 880.111 485.92C888.631 492.52 893.191 501.76 893.791 513.64H860.491C860.251 509.56 858.751 506.38 855.991 504.1C853.231 501.7 849.691 500.5 845.371 500.5C841.651 500.5 838.651 501.52 836.371 503.56C834.091 505.48 832.951 508.3 832.951 512.02C832.951 516.1 834.871 519.28 838.711 521.56C842.551 523.84 848.551 526.3 856.711 528.94C864.871 531.7 871.471 534.34 876.511 536.86C881.671 539.38 886.111 543.04 889.831 547.84C893.551 552.64 895.411 558.82 895.411 566.38C895.411 573.58 893.551 580.12 889.831 586C886.231 591.88 880.951 596.56 873.991 600.04C867.031 603.52 858.811 605.26 849.331 605.26ZM993.013 581.68H945.853L938.293 604H906.073L951.793 477.64H987.433L1033.15 604H1000.57L993.013 581.68ZM985.093 557.92L969.433 511.66L953.953 557.92H985.093ZM1130.93 605.26C1121.69 605.26 1113.41 603.76 1106.09 600.76C1098.77 597.76 1092.89 593.32 1088.45 587.44C1084.13 581.56 1081.85 574.48 1081.61 566.2H1114.37C1114.85 570.88 1116.47 574.48 1119.23 577C1121.99 579.4 1125.59 580.6 1130.03 580.6C1134.59 580.6 1138.19 579.58 1140.83 577.54C1143.47 575.38 1144.79 572.44 1144.79 568.72C1144.79 565.6 1143.71 563.02 1141.55 560.98C1139.51 558.94 1136.93 557.26 1133.81 555.94C1130.81 554.62 1126.49 553.12 1120.85 551.44C1112.69 548.92 1106.03 546.4 1100.87 543.88C1095.71 541.36 1091.27 537.64 1087.55 532.72C1083.83 527.8 1081.97 521.38 1081.97 513.46C1081.97 501.7 1086.23 492.52 1094.75 485.92C1103.27 479.2 1114.37 475.84 1128.05 475.84C1141.97 475.84 1153.19 479.2 1161.71 485.92C1170.23 492.52 1174.79 501.76 1175.39 513.64H1142.09C1141.85 509.56 1140.35 506.38 1137.59 504.1C1134.83 501.7 1131.29 500.5 1126.97 500.5C1123.25 500.5 1120.25 501.52 1117.97 503.56C1115.69 505.48 1114.55 508.3 1114.55 512.02C1114.55 516.1 1116.47 519.28 1120.31 521.56C1124.15 523.84 1130.15 526.3 1138.31 528.94C1146.47 531.7 1153.07 534.34 1158.11 536.86C1163.27 539.38 1167.71 543.04 1171.43 547.84C1175.15 552.64 1177.01 558.82 1177.01 566.38C1177.01 573.58 1175.15 580.12 1171.43 586C1167.83 591.88 1162.55 596.56 1155.59 600.04C1148.63 603.52 1140.41 605.26 1130.93 605.26ZM1226.19 477.64V553.24C1226.19 560.8 1228.05 566.62 1231.77 570.7C1235.49 574.78 1240.95 576.82 1248.15 576.82C1255.35 576.82 1260.87 574.78 1264.71 570.7C1268.55 566.62 1270.47 560.8 1270.47 553.24V477.64H1301.25V553.06C1301.25 564.34 1298.85 573.88 1294.05 581.68C1289.25 589.48 1282.77 595.36 1274.61 599.32C1266.57 603.28 1257.57 605.26 1247.61 605.26C1237.65 605.26 1228.71 603.34 1220.79 599.5C1212.99 595.54 1206.81 589.66 1202.25 581.86C1197.69 573.94 1195.41 564.34 1195.41 553.06V477.64H1226.19ZM1465.97 477.64V604H1435.19V528.22L1406.93 604H1382.09L1353.65 528.04V604H1322.87V477.64H1359.23L1394.69 565.12L1429.79 477.64H1465.97ZM1631.2 477.64V604H1600.42V528.22L1572.16 604H1547.32L1518.88 528.04V604H1488.1V477.64H1524.46L1559.92 565.12L1595.02 477.64H1631.2ZM1684.12 477.64V604H1653.34V477.64H1684.12ZM1797.32 477.64V502.3H1763.84V604H1733.06V502.3H1699.58V477.64H1797.32Z" fill="white"/>
</svg>
