<svg width="1910" height="1063" viewBox="0 0 1910 1063" fill="none" xmlns="http://www.w3.org/2000/svg">
<rect width="1910" height="1062.53" fill="#D77B7D"/>
<rect x="302" y="169" width="1265" height="798" fill="#CA5151"/>
<path d="M294.759 352H263.979L212.499 274.06V352H181.719V225.64H212.499L263.979 303.94V225.64H294.759V352ZM376.83 353.26C364.95 353.26 354.03 350.5 344.07 344.98C334.23 339.46 326.37 331.78 320.49 321.94C314.73 311.98 311.85 300.82 311.85 288.46C311.85 276.1 314.73 265 320.49 255.16C326.37 245.32 334.23 237.64 344.07 232.12C354.03 226.6 364.95 223.84 376.83 223.84C388.71 223.84 399.57 226.6 409.41 232.12C419.37 237.64 427.17 245.32 432.81 255.16C438.57 265 441.45 276.1 441.45 288.46C441.45 300.82 438.57 311.98 432.81 321.94C427.05 331.78 419.25 339.46 409.41 344.98C399.57 350.5 388.71 353.26 376.83 353.26ZM376.83 325.18C386.91 325.18 394.95 321.82 400.95 315.1C407.07 308.38 410.13 299.5 410.13 288.46C410.13 277.3 407.07 268.42 400.95 261.82C394.95 255.1 386.91 251.74 376.83 251.74C366.63 251.74 358.47 255.04 352.35 261.64C346.35 268.24 343.35 277.18 343.35 288.46C343.35 299.62 346.35 308.56 352.35 315.28C358.47 321.88 366.63 325.18 376.83 325.18ZM523.014 352L496.734 304.3H489.354V352H458.574V225.64H510.234C520.194 225.64 528.654 227.38 535.614 230.86C542.694 234.34 547.974 239.14 551.454 245.26C554.934 251.26 556.674 257.98 556.674 265.42C556.674 273.82 554.274 281.32 549.474 287.92C544.794 294.52 537.834 299.2 528.594 301.96L557.754 352H523.014ZM489.354 282.52H508.434C514.074 282.52 518.274 281.14 521.034 278.38C523.914 275.62 525.354 271.72 525.354 266.68C525.354 261.88 523.914 258.1 521.034 255.34C518.274 252.58 514.074 251.2 508.434 251.2H489.354V282.52ZM666.896 225.64V250.3H633.416V352H602.636V250.3H569.156V225.64H666.896ZM791.784 225.64V352H761.004V299.98H713.124V352H682.344V225.64H713.124V275.14H761.004V225.64H791.784ZM930.808 329.68H883.648L876.088 352H843.868L889.588 225.64H925.228L970.948 352H938.368L930.808 329.68ZM922.888 305.92L907.228 259.66L891.748 305.92H922.888ZM1075.76 225.64V250.3H1042.28V352H1011.5V250.3H978.023V225.64H1075.76ZM1121.99 328.24H1162.31V352H1091.21V225.64H1121.99V328.24ZM1255.65 329.68H1208.49L1200.93 352H1168.71L1214.43 225.64H1250.07L1295.79 352H1263.21L1255.65 329.68ZM1247.73 305.92L1232.07 259.66L1216.59 305.92H1247.73ZM1422.75 352H1391.97L1340.49 274.06V352H1309.71V225.64H1340.49L1391.97 303.94V225.64H1422.75V352ZM1535.96 225.64V250.3H1502.48V352H1471.7V250.3H1438.22V225.64H1535.96ZM1582.19 225.64V352H1551.41V225.64H1582.19ZM1599.27 288.64C1599.27 276.16 1601.97 265.06 1607.37 255.34C1612.77 245.5 1620.27 237.88 1629.87 232.48C1639.59 226.96 1650.57 224.2 1662.81 224.2C1677.81 224.2 1690.65 228.16 1701.33 236.08C1712.01 244 1719.15 254.8 1722.75 268.48H1688.91C1686.39 263.2 1682.79 259.18 1678.11 256.42C1673.55 253.66 1668.33 252.28 1662.45 252.28C1652.97 252.28 1645.29 255.58 1639.41 262.18C1633.53 268.78 1630.59 277.6 1630.59 288.64C1630.59 299.68 1633.53 308.5 1639.41 315.1C1645.29 321.7 1652.97 325 1662.45 325C1668.33 325 1673.55 323.62 1678.11 320.86C1682.79 318.1 1686.39 314.08 1688.91 308.8H1722.75C1719.15 322.48 1712.01 333.28 1701.33 341.2C1690.65 349 1677.81 352.9 1662.81 352.9C1650.57 352.9 1639.59 350.2 1629.87 344.8C1620.27 339.28 1612.77 331.66 1607.37 321.94C1601.97 312.22 1599.27 301.12 1599.27 288.64ZM712.072 495.64V520.3H678.592V622H647.812V520.3H614.332V495.64H712.072ZM791.959 622L765.679 574.3H758.299V622H727.519V495.64H779.179C789.139 495.64 797.599 497.38 804.559 500.86C811.639 504.34 816.919 509.14 820.399 515.26C823.879 521.26 825.619 527.98 825.619 535.42C825.619 543.82 823.219 551.32 818.419 557.92C813.739 564.52 806.779 569.2 797.539 571.96L826.699 622H791.959ZM758.299 552.52H777.379C783.019 552.52 787.219 551.14 789.979 548.38C792.859 545.62 794.299 541.72 794.299 536.68C794.299 531.88 792.859 528.1 789.979 525.34C787.219 522.58 783.019 521.2 777.379 521.2H758.299V552.52ZM875.721 520.3V545.86H916.941V569.62H875.721V597.34H922.341V622H844.941V495.64H922.341V520.3H875.721ZM1020.98 599.68H973.824L966.264 622H934.044L979.764 495.64H1015.4L1061.12 622H1028.54L1020.98 599.68ZM1013.06 575.92L997.404 529.66L981.924 575.92H1013.06ZM1165.94 495.64V520.3H1132.46V622H1101.68V520.3H1068.2V495.64H1165.94ZM1289.75 495.64L1246.01 580.24V622H1215.23V580.24L1171.49 495.64H1206.41L1230.89 548.56L1255.19 495.64H1289.75ZM324.711 893.26C312.831 893.26 301.911 890.5 291.951 884.98C282.111 879.46 274.251 871.78 268.371 861.94C262.611 851.98 259.731 840.82 259.731 828.46C259.731 816.1 262.611 805 268.371 795.16C274.251 785.32 282.111 777.64 291.951 772.12C301.911 766.6 312.831 763.84 324.711 763.84C336.591 763.84 347.451 766.6 357.291 772.12C367.251 777.64 375.051 785.32 380.691 795.16C386.451 805 389.331 816.1 389.331 828.46C389.331 840.82 386.451 851.98 380.691 861.94C374.931 871.78 367.131 879.46 357.291 884.98C347.451 890.5 336.591 893.26 324.711 893.26ZM324.711 865.18C334.791 865.18 342.831 861.82 348.831 855.1C354.951 848.38 358.011 839.5 358.011 828.46C358.011 817.3 354.951 808.42 348.831 801.82C342.831 795.1 334.791 791.74 324.711 791.74C314.511 791.74 306.351 795.04 300.231 801.64C294.231 808.24 291.231 817.18 291.231 828.46C291.231 839.62 294.231 848.56 300.231 855.28C306.351 861.88 314.511 865.18 324.711 865.18ZM470.895 892L444.615 844.3H437.235V892H406.455V765.64H458.115C468.075 765.64 476.535 767.38 483.495 770.86C490.575 774.34 495.855 779.14 499.335 785.26C502.815 791.26 504.555 797.98 504.555 805.42C504.555 813.82 502.155 821.32 497.355 827.92C492.675 834.52 485.715 839.2 476.475 841.96L505.635 892H470.895ZM437.235 822.52H456.315C461.955 822.52 466.155 821.14 468.915 818.38C471.795 815.62 473.235 811.72 473.235 806.68C473.235 801.88 471.795 798.1 468.915 795.34C466.155 792.58 461.955 791.2 456.315 791.2H437.235V822.52ZM607.757 805.6C605.477 801.4 602.177 798.22 597.857 796.06C593.657 793.78 588.677 792.64 582.917 792.64C572.957 792.64 564.977 795.94 558.977 802.54C552.977 809.02 549.977 817.72 549.977 828.64C549.977 840.28 553.097 849.4 559.337 856C565.697 862.48 574.397 865.72 585.437 865.72C592.997 865.72 599.357 863.8 604.517 859.96C609.797 856.12 613.637 850.6 616.037 843.4H576.977V820.72H643.937V849.34C641.657 857.02 637.757 864.16 632.237 870.76C626.837 877.36 619.937 882.7 611.537 886.78C603.137 890.86 593.657 892.9 583.097 892.9C570.617 892.9 559.457 890.2 549.617 884.8C539.897 879.28 532.277 871.66 526.757 861.94C521.357 852.22 518.657 841.12 518.657 828.64C518.657 816.16 521.357 805.06 526.757 795.34C532.277 785.5 539.897 777.88 549.617 772.48C559.337 766.96 570.437 764.2 582.917 764.2C598.037 764.2 610.757 767.86 621.077 775.18C631.517 782.5 638.417 792.64 641.777 805.6H607.757ZM739.646 869.68H692.486L684.926 892H652.706L698.426 765.64H734.066L779.786 892H747.206L739.646 869.68ZM731.726 845.92L716.066 799.66L700.586 845.92H731.726ZM906.741 892H875.961L824.481 814.06V892H793.701V765.64H824.481L875.961 843.94V765.64H906.741V892ZM959.833 765.64V892H929.053V765.64H959.833ZM1014.9 866.8H1069.26V892H979.979V868.6L1033.98 790.84H979.979V765.64H1069.26V789.04L1014.9 866.8ZM1168.03 869.68H1120.87L1113.31 892H1081.09L1126.81 765.64H1162.45L1208.17 892H1175.59L1168.03 869.68ZM1160.11 845.92L1144.45 799.66L1128.97 845.92H1160.11ZM1312.98 765.64V790.3H1279.5V892H1248.72V790.3H1215.24V765.64H1312.98ZM1359.21 765.64V892H1328.43V765.64H1359.21ZM1441.27 893.26C1429.39 893.26 1418.47 890.5 1408.51 884.98C1398.67 879.46 1390.81 871.78 1384.93 861.94C1379.17 851.98 1376.29 840.82 1376.29 828.46C1376.29 816.1 1379.17 805 1384.93 795.16C1390.81 785.32 1398.67 777.64 1408.51 772.12C1418.47 766.6 1429.39 763.84 1441.27 763.84C1453.15 763.84 1464.01 766.6 1473.85 772.12C1483.81 777.64 1491.61 785.32 1497.25 795.16C1503.01 805 1505.89 816.1 1505.89 828.46C1505.89 840.82 1503.01 851.98 1497.25 861.94C1491.49 871.78 1483.69 879.46 1473.85 884.98C1464.01 890.5 1453.15 893.26 1441.27 893.26ZM1441.27 865.18C1451.35 865.18 1459.39 861.82 1465.39 855.1C1471.51 848.38 1474.57 839.5 1474.57 828.46C1474.57 817.3 1471.51 808.42 1465.39 801.82C1459.39 795.1 1451.35 791.74 1441.27 791.74C1431.07 791.74 1422.91 795.04 1416.79 801.64C1410.79 808.24 1407.79 817.18 1407.79 828.46C1407.79 839.62 1410.79 848.56 1416.79 855.28C1422.91 861.88 1431.07 865.18 1441.27 865.18ZM1636.06 892H1605.28L1553.8 814.06V892H1523.02V765.64H1553.8L1605.28 843.94V765.64H1636.06V892Z" fill="white"/>
</svg>
