<svg width="1910" height="1063" viewBox="0 0 1910 1063" fill="none" xmlns="http://www.w3.org/2000/svg">
<rect width="1910" height="1062.53" fill="#3959CD"/>
<rect x="302" y="169" width="1265" height="798" fill="#5181CA"/>
<path d="M196.766 491.3V516.86H237.986V540.62H196.766V568.34H243.386V593H165.986V466.64H243.386V491.3H196.766ZM293.609 466.64V542.24C293.609 549.8 295.469 555.62 299.189 559.7C302.909 563.78 308.369 565.82 315.569 565.82C322.769 565.82 328.289 563.78 332.129 559.7C335.969 555.62 337.889 549.8 337.889 542.24V466.64H368.669V542.06C368.669 553.34 366.269 562.88 361.469 570.68C356.669 578.48 350.189 584.36 342.029 588.32C333.989 592.28 324.989 594.26 315.029 594.26C305.069 594.26 296.129 592.34 288.209 588.5C280.409 584.54 274.229 578.66 269.669 570.86C265.109 562.94 262.829 553.34 262.829 542.06V466.64H293.609ZM454.723 593L428.443 545.3H421.063V593H390.283V466.64H441.943C451.903 466.64 460.363 468.38 467.323 471.86C474.403 475.34 479.683 480.14 483.163 486.26C486.643 492.26 488.383 498.98 488.383 506.42C488.383 514.82 485.983 522.32 481.183 528.92C476.503 535.52 469.543 540.2 460.303 542.96L489.463 593H454.723ZM421.063 523.52H440.143C445.783 523.52 449.983 522.14 452.743 519.38C455.623 516.62 457.063 512.72 457.063 507.68C457.063 502.88 455.623 499.1 452.743 496.34C449.983 493.58 445.783 492.2 440.143 492.2H421.063V523.52ZM567.465 594.26C555.585 594.26 544.665 591.5 534.705 585.98C524.865 580.46 517.005 572.78 511.125 562.94C505.365 552.98 502.485 541.82 502.485 529.46C502.485 517.1 505.365 506 511.125 496.16C517.005 486.32 524.865 478.64 534.705 473.12C544.665 467.6 555.585 464.84 567.465 464.84C579.345 464.84 590.205 467.6 600.045 473.12C610.005 478.64 617.805 486.32 623.445 496.16C629.205 506 632.085 517.1 632.085 529.46C632.085 541.82 629.205 552.98 623.445 562.94C617.685 572.78 609.885 580.46 600.045 585.98C590.205 591.5 579.345 594.26 567.465 594.26ZM567.465 566.18C577.545 566.18 585.585 562.82 591.585 556.1C597.705 549.38 600.765 540.5 600.765 529.46C600.765 518.3 597.705 509.42 591.585 502.82C585.585 496.1 577.545 492.74 567.465 492.74C557.265 492.74 549.105 496.04 542.985 502.64C536.985 509.24 533.985 518.18 533.985 529.46C533.985 540.62 536.985 549.56 542.985 556.28C549.105 562.88 557.265 566.18 567.465 566.18ZM745.509 507.32C745.509 514.64 743.829 521.36 740.469 527.48C737.109 533.48 731.949 538.34 724.989 542.06C718.029 545.78 709.389 547.64 699.069 547.64H679.989V593H649.209V466.64H699.069C709.149 466.64 717.669 468.38 724.629 471.86C731.589 475.34 736.809 480.14 740.289 486.26C743.769 492.38 745.509 499.4 745.509 507.32ZM696.729 523.16C702.609 523.16 706.989 521.78 709.869 519.02C712.749 516.26 714.189 512.36 714.189 507.32C714.189 502.28 712.749 498.38 709.869 495.62C706.989 492.86 702.609 491.48 696.729 491.48H679.989V523.16H696.729ZM792.313 491.3V516.86H833.533V540.62H792.313V568.34H838.933V593H761.533V466.64H838.933V491.3H792.313ZM937.576 570.68H890.416L882.856 593H850.636L896.356 466.64H931.996L977.716 593H945.136L937.576 570.68ZM929.656 546.92L913.996 500.66L898.516 546.92H929.656ZM1104.67 593H1073.89L1022.41 515.06V593H991.631V466.64H1022.41L1073.89 544.94V466.64H1104.67V593ZM1195.37 466.64V542.24C1195.37 549.8 1197.23 555.62 1200.95 559.7C1204.67 563.78 1210.13 565.82 1217.33 565.82C1224.53 565.82 1230.05 563.78 1233.89 559.7C1237.73 555.62 1239.65 549.8 1239.65 542.24V466.64H1270.43V542.06C1270.43 553.34 1268.03 562.88 1263.23 570.68C1258.43 578.48 1251.95 584.36 1243.79 588.32C1235.75 592.28 1226.75 594.26 1216.79 594.26C1206.83 594.26 1197.89 592.34 1189.97 588.5C1182.17 584.54 1175.99 578.66 1171.43 570.86C1166.87 562.94 1164.59 553.34 1164.59 542.06V466.64H1195.37ZM1405.08 593H1374.3L1322.82 515.06V593H1292.04V466.64H1322.82L1374.3 544.94V466.64H1405.08V593ZM1458.17 466.64V593H1427.39V466.64H1458.17ZM1540.24 594.26C1528.36 594.26 1517.44 591.5 1507.48 585.98C1497.64 580.46 1489.78 572.78 1483.9 562.94C1478.14 552.98 1475.26 541.82 1475.26 529.46C1475.26 517.1 1478.14 506 1483.9 496.16C1489.78 486.32 1497.64 478.64 1507.48 473.12C1517.44 467.6 1528.36 464.84 1540.24 464.84C1552.12 464.84 1562.98 467.6 1572.82 473.12C1582.78 478.64 1590.58 486.32 1596.22 496.16C1601.98 506 1604.86 517.1 1604.86 529.46C1604.86 541.82 1601.98 552.98 1596.22 562.94C1590.46 572.78 1582.66 580.46 1572.82 585.98C1562.98 591.5 1552.12 594.26 1540.24 594.26ZM1540.24 566.18C1550.32 566.18 1558.36 562.82 1564.36 556.1C1570.48 549.38 1573.54 540.5 1573.54 529.46C1573.54 518.3 1570.48 509.42 1564.36 502.82C1558.36 496.1 1550.32 492.74 1540.24 492.74C1530.04 492.74 1521.88 496.04 1515.76 502.64C1509.76 509.24 1506.76 518.18 1506.76 529.46C1506.76 540.62 1509.76 549.56 1515.76 556.28C1521.88 562.88 1530.04 566.18 1540.24 566.18ZM1735.02 593H1704.24L1652.76 515.06V593H1621.98V466.64H1652.76L1704.24 544.94V466.64H1735.02V593Z" fill="white"/>
</svg>
