<svg width="2525" height="754" viewBox="0 0 2525 754" fill="none" xmlns="http://www.w3.org/2000/svg">
<g clip-path="url(#clip0_135_23)">
<rect y="-45" width="2525" height="799" fill="#121629"/>
<ellipse cx="2254" cy="109" rx="308" ry="223" fill="#060EA1"/>
<ellipse cx="2278" cy="332.5" rx="308" ry="223.5" fill="#060EA1"/>
<ellipse cx="2278" cy="665" rx="308" ry="223" fill="#060EA1"/>
<ellipse cx="2423" cy="109" rx="308" ry="223" fill="#38B6FF"/>
<ellipse cx="2447" cy="332.5" rx="308" ry="223.5" fill="#38B6FF"/>
<ellipse cx="2447" cy="665" rx="308" ry="223" fill="#38B6FF"/>
<path d="M196.5 318L163.65 258.375H154.425V318H115.95V160.05H180.525C192.975 160.05 203.55 162.225 212.25 166.575C221.1 170.925 227.7 176.925 232.05 184.575C236.4 192.075 238.575 200.475 238.575 209.775C238.575 220.275 235.575 229.65 229.575 237.9C223.725 246.15 215.025 252 203.475 255.45L239.925 318H196.5ZM154.425 231.15H178.275C185.325 231.15 190.575 229.425 194.025 225.975C197.625 222.525 199.425 217.65 199.425 211.35C199.425 205.35 197.625 200.625 194.025 197.175C190.575 193.725 185.325 192 178.275 192H154.425V231.15ZM301.202 190.875V222.825H352.727V252.525H301.202V287.175H359.477V318H262.727V160.05H359.477V190.875H301.202ZM489.306 210C486.456 204.75 482.331 200.775 476.931 198.075C471.681 195.225 465.456 193.8 458.256 193.8C445.806 193.8 435.831 197.925 428.331 206.175C420.831 214.275 417.081 225.15 417.081 238.8C417.081 253.35 420.981 264.75 428.781 273C436.731 281.1 447.606 285.15 461.406 285.15C470.856 285.15 478.806 282.75 485.256 277.95C491.856 273.15 496.656 266.25 499.656 257.25H450.831V228.9H534.531V264.675C531.681 274.275 526.806 283.2 519.906 291.45C513.156 299.7 504.531 306.375 494.031 311.475C483.531 316.575 471.681 319.125 458.481 319.125C442.881 319.125 428.931 315.75 416.631 309C404.481 302.1 394.956 292.575 388.056 280.425C381.306 268.275 377.931 254.4 377.931 238.8C377.931 223.2 381.306 209.325 388.056 197.175C394.956 184.875 404.481 175.35 416.631 168.6C428.781 161.7 442.656 158.25 458.256 158.25C477.156 158.25 493.056 162.825 505.956 171.975C519.006 181.125 527.631 193.8 531.831 210H489.306ZM594.318 160.05V318H555.843V160.05H594.318ZM679.35 319.575C667.8 319.575 657.45 317.7 648.3 313.95C639.15 310.2 631.8 304.65 626.25 297.3C620.85 289.95 618 281.1 617.7 270.75H658.65C659.25 276.6 661.275 281.1 664.725 284.25C668.175 287.25 672.675 288.75 678.225 288.75C683.925 288.75 688.425 287.475 691.725 284.925C695.025 282.225 696.675 278.55 696.675 273.9C696.675 270 695.325 266.775 692.625 264.225C690.075 261.675 686.85 259.575 682.95 257.925C679.2 256.275 673.8 254.4 666.75 252.3C656.55 249.15 648.225 246 641.775 242.85C635.325 239.7 629.775 235.05 625.125 228.9C620.475 222.75 618.15 214.725 618.15 204.825C618.15 190.125 623.475 178.65 634.125 170.4C644.775 162 658.65 157.8 675.75 157.8C693.15 157.8 707.175 162 717.825 170.4C728.475 178.65 734.175 190.2 734.925 205.05H693.3C693 199.95 691.125 195.975 687.675 193.125C684.225 190.125 679.8 188.625 674.4 188.625C669.75 188.625 666 189.9 663.15 192.45C660.3 194.85 658.875 198.375 658.875 203.025C658.875 208.125 661.275 212.1 666.075 214.95C670.875 217.8 678.375 220.875 688.575 224.175C698.775 227.625 707.025 230.925 713.325 234.075C719.775 237.225 725.325 241.8 729.975 247.8C734.625 253.8 736.95 261.525 736.95 270.975C736.95 279.975 734.625 288.15 729.975 295.5C725.475 302.85 718.875 308.7 710.175 313.05C701.475 317.4 691.2 319.575 679.35 319.575ZM874.253 160.05V190.875H832.403V318H793.928V190.875H752.078V160.05H874.253ZM974.112 318L941.262 258.375H932.037V318H893.562V160.05H958.137C970.587 160.05 981.162 162.225 989.862 166.575C998.712 170.925 1005.31 176.925 1009.66 184.575C1014.01 192.075 1016.19 200.475 1016.19 209.775C1016.19 220.275 1013.19 229.65 1007.19 237.9C1001.34 246.15 992.637 252 981.087 255.45L1017.54 318H974.112ZM932.037 231.15H955.887C962.937 231.15 968.187 229.425 971.637 225.975C975.237 222.525 977.037 217.65 977.037 211.35C977.037 205.35 975.237 200.625 971.637 197.175C968.187 193.725 962.937 192 955.887 192H932.037V231.15ZM1138.66 290.1H1079.71L1070.26 318H1029.99L1087.14 160.05H1131.69L1188.84 318H1148.11L1138.66 290.1ZM1128.76 260.4L1109.19 202.575L1089.84 260.4H1128.76ZM1319.86 160.05V190.875H1278.01V318H1239.53V190.875H1197.68V160.05H1319.86ZM1377.64 160.05V318H1339.17V160.05H1377.64ZM1480.23 319.575C1465.38 319.575 1451.73 316.125 1439.28 309.225C1426.98 302.325 1417.15 292.725 1409.8 280.425C1402.6 267.975 1399 254.025 1399 238.575C1399 223.125 1402.6 209.25 1409.8 196.95C1417.15 184.65 1426.98 175.05 1439.28 168.15C1451.73 161.25 1465.38 157.8 1480.23 157.8C1495.08 157.8 1508.65 161.25 1520.95 168.15C1533.4 175.05 1543.15 184.65 1550.2 196.95C1557.4 209.25 1561 223.125 1561 238.575C1561 254.025 1557.4 267.975 1550.2 280.425C1543 292.725 1533.25 302.325 1520.95 309.225C1508.65 316.125 1495.08 319.575 1480.23 319.575ZM1480.23 284.475C1492.83 284.475 1502.88 280.275 1510.38 271.875C1518.03 263.475 1521.85 252.375 1521.85 238.575C1521.85 224.625 1518.03 213.525 1510.38 205.275C1502.88 196.875 1492.83 192.675 1480.23 192.675C1467.48 192.675 1457.28 196.8 1449.63 205.05C1442.13 213.3 1438.38 224.475 1438.38 238.575C1438.38 252.525 1442.13 263.7 1449.63 272.1C1457.28 280.35 1467.48 284.475 1480.23 284.475ZM1723.71 318H1685.23L1620.88 220.575V318H1582.41V160.05H1620.88L1685.23 257.925V160.05H1723.71V318ZM236.325 548.9C236.325 558.05 234.225 566.45 230.025 574.1C225.825 581.6 219.375 587.675 210.675 592.325C201.975 596.975 191.175 599.3 178.275 599.3H154.425V656H115.95V498.05H178.275C190.875 498.05 201.525 500.225 210.225 504.575C218.925 508.925 225.45 514.925 229.8 522.575C234.15 530.225 236.325 539 236.325 548.9ZM175.35 568.7C182.7 568.7 188.175 566.975 191.775 563.525C195.375 560.075 197.175 555.2 197.175 548.9C197.175 542.6 195.375 537.725 191.775 534.275C188.175 530.825 182.7 529.1 175.35 529.1H154.425V568.7H175.35ZM336.905 656L304.055 596.375H294.83V656H256.355V498.05H320.93C333.38 498.05 343.955 500.225 352.655 504.575C361.505 508.925 368.105 514.925 372.455 522.575C376.805 530.075 378.98 538.475 378.98 547.775C378.98 558.275 375.98 567.65 369.98 575.9C364.13 584.15 355.43 590 343.88 593.45L380.33 656H336.905ZM294.83 569.15H318.68C325.73 569.15 330.98 567.425 334.43 563.975C338.03 560.525 339.83 555.65 339.83 549.35C339.83 543.35 338.03 538.625 334.43 535.175C330.98 531.725 325.73 530 318.68 530H294.83V569.15ZM477.833 657.575C462.983 657.575 449.333 654.125 436.883 647.225C424.583 640.325 414.758 630.725 407.408 618.425C400.208 605.975 396.608 592.025 396.608 576.575C396.608 561.125 400.208 547.25 407.408 534.95C414.758 522.65 424.583 513.05 436.883 506.15C449.333 499.25 462.983 495.8 477.833 495.8C492.683 495.8 506.258 499.25 518.558 506.15C531.008 513.05 540.758 522.65 547.808 534.95C555.008 547.25 558.608 561.125 558.608 576.575C558.608 592.025 555.008 605.975 547.808 618.425C540.608 630.725 530.858 640.325 518.558 647.225C506.258 654.125 492.683 657.575 477.833 657.575ZM477.833 622.475C490.433 622.475 500.483 618.275 507.983 609.875C515.633 601.475 519.458 590.375 519.458 576.575C519.458 562.625 515.633 551.525 507.983 543.275C500.483 534.875 490.433 530.675 477.833 530.675C465.083 530.675 454.883 534.8 447.233 543.05C439.733 551.3 435.983 562.475 435.983 576.575C435.983 590.525 439.733 601.7 447.233 610.1C454.883 618.35 465.083 622.475 477.833 622.475ZM573.487 576.8C573.487 561.2 576.863 547.325 583.613 535.175C590.363 522.875 599.738 513.35 611.738 506.6C623.888 499.7 637.613 496.25 652.913 496.25C671.663 496.25 687.713 501.2 701.063 511.1C714.413 521 723.338 534.5 727.838 551.6H685.538C682.388 545 677.888 539.975 672.038 536.525C666.338 533.075 659.813 531.35 652.463 531.35C640.613 531.35 631.013 535.475 623.663 543.725C616.313 551.975 612.638 563 612.638 576.8C612.638 590.6 616.313 601.625 623.663 609.875C631.013 618.125 640.613 622.25 652.463 622.25C659.813 622.25 666.338 620.525 672.038 617.075C677.888 613.625 682.388 608.6 685.538 602H727.838C723.338 619.1 714.413 632.6 701.063 642.5C687.713 652.25 671.663 657.125 652.913 657.125C637.613 657.125 623.888 653.75 611.738 647C599.738 640.1 590.363 630.575 583.613 618.425C576.863 606.275 573.487 592.4 573.487 576.8ZM789.874 528.875V560.825H841.399V590.525H789.874V625.175H848.149V656H751.399V498.05H848.149V528.875H789.874ZM932.303 498.05C948.953 498.05 963.503 501.35 975.953 507.95C988.403 514.55 998.003 523.85 1004.75 535.85C1011.65 547.7 1015.1 561.425 1015.1 577.025C1015.1 592.475 1011.65 606.2 1004.75 618.2C998.003 630.2 988.328 639.5 975.728 646.1C963.278 652.7 948.803 656 932.303 656H873.128V498.05H932.303ZM929.828 622.7C944.378 622.7 955.703 618.725 963.803 610.775C971.903 602.825 975.953 591.575 975.953 577.025C975.953 562.475 971.903 551.15 963.803 543.05C955.703 534.95 944.378 530.9 929.828 530.9H911.603V622.7H929.828ZM1074.4 498.05V592.55C1074.4 602 1076.73 609.275 1081.38 614.375C1086.03 619.475 1092.85 622.025 1101.85 622.025C1110.85 622.025 1117.75 619.475 1122.55 614.375C1127.35 609.275 1129.75 602 1129.75 592.55V498.05H1168.23V592.325C1168.23 606.425 1165.23 618.35 1159.23 628.1C1153.23 637.85 1145.13 645.2 1134.93 650.15C1124.88 655.1 1113.63 657.575 1101.18 657.575C1088.73 657.575 1077.55 655.175 1067.65 650.375C1057.9 645.425 1050.18 638.075 1044.48 628.325C1038.78 618.425 1035.93 606.425 1035.93 592.325V498.05H1074.4ZM1275.8 656L1242.95 596.375H1233.72V656H1195.25V498.05H1259.82C1272.27 498.05 1282.85 500.225 1291.55 504.575C1300.4 508.925 1307 514.925 1311.35 522.575C1315.7 530.075 1317.87 538.475 1317.87 547.775C1317.87 558.275 1314.87 567.65 1308.87 575.9C1303.02 584.15 1294.32 590 1282.77 593.45L1319.22 656H1275.8ZM1233.72 569.15H1257.57C1264.62 569.15 1269.87 567.425 1273.32 563.975C1276.92 560.525 1278.72 555.65 1278.72 549.35C1278.72 543.35 1276.92 538.625 1273.32 535.175C1269.87 531.725 1264.62 530 1257.57 530H1233.72V569.15ZM1380.5 528.875V560.825H1432.02V590.525H1380.5V625.175H1438.77V656H1342.02V498.05H1438.77V528.875H1380.5Z" fill="white"/>
<rect x="66" y="723" width="1880" height="9" fill="white"/>
</g>
<defs>
<clipPath id="clip0_135_23">
<rect width="2525" height="754" fill="white"/>
</clipPath>
</defs>
</svg>
