<svg width="2525" height="859" viewBox="0 0 2525 859" fill="none" xmlns="http://www.w3.org/2000/svg">
<g clip-path="url(#clip0_101_10)">
<rect width="2525" height="901" fill="#B8C1EC"/>
<ellipse cx="321.5" cy="-133" rx="479.5" ry="380" fill="#121629"/>
<ellipse cx="1002.5" cy="-133" rx="464.5" ry="380" fill="#121629"/>
<ellipse cx="1669.5" cy="-133" rx="464.5" ry="380" fill="#121629"/>
<ellipse cx="2246.5" cy="-133" rx="464.5" ry="380" fill="#121629"/>
<ellipse cx="251.5" cy="-249" rx="409.5" ry="380" fill="#1E2A62"/>
<ellipse cx="932.5" cy="-249" rx="394.5" ry="380" fill="#1E2A62"/>
<ellipse cx="1599.5" cy="-249" rx="394.5" ry="380" fill="#1E2A62"/>
<ellipse cx="2235.5" cy="-249" rx="394.5" ry="380" fill="#1E2A62"/>
<path d="M153.4 399C151.183 394.917 147.975 391.825 143.775 389.725C139.692 387.508 134.85 386.4 129.25 386.4C119.567 386.4 111.808 389.608 105.975 396.025C100.142 402.325 97.225 410.783 97.225 421.4C97.225 432.717 100.258 441.583 106.325 448C112.508 454.3 120.967 457.45 131.7 457.45C139.05 457.45 145.233 455.583 150.25 451.85C155.383 448.117 159.117 442.75 161.45 435.75H123.475V413.7H188.575V441.525C186.358 448.992 182.567 455.933 177.2 462.35C171.95 468.767 165.242 473.958 157.075 477.925C148.908 481.892 139.692 483.875 129.425 483.875C117.292 483.875 106.442 481.25 96.875 476C87.425 470.633 80.0167 463.225 74.65 453.775C69.4 444.325 66.775 433.533 66.775 421.4C66.775 409.267 69.4 398.475 74.65 389.025C80.0167 379.458 87.425 372.05 96.875 366.8C106.325 361.433 117.117 358.75 129.25 358.75C143.95 358.75 156.317 362.308 166.35 369.425C176.5 376.542 183.208 386.4 186.475 399H153.4ZM235.076 384.125V408.975H275.151V432.075H235.076V459.025H280.401V483H205.151V360.15H280.401V384.125H235.076ZM409.729 483H379.804L329.754 407.225V483H299.829V360.15H329.754L379.804 436.275V360.15H409.729V483ZM461.345 384.125V408.975H501.42V432.075H461.345V459.025H506.67V483H431.42V360.15H506.67V384.125H461.345ZM588.748 483L563.198 436.625H556.023V483H526.098V360.15H576.323C586.006 360.15 594.231 361.842 600.998 365.225C607.881 368.608 613.015 373.275 616.398 379.225C619.781 385.058 621.473 391.592 621.473 398.825C621.473 406.992 619.14 414.283 614.473 420.7C609.923 427.117 603.156 431.667 594.173 434.35L622.523 483H588.748ZM556.023 415.45H574.573C580.056 415.45 584.14 414.108 586.823 411.425C589.623 408.742 591.023 404.95 591.023 400.05C591.023 395.383 589.623 391.708 586.823 389.025C584.14 386.342 580.056 385 574.573 385H556.023V415.45ZM716.733 461.3H670.883L663.533 483H632.208L676.658 360.15H711.308L755.758 483H724.083L716.733 461.3ZM709.033 438.2L693.808 393.225L678.758 438.2H709.033ZM799.212 459.9H838.412V483H769.287V360.15H799.212V459.9ZM952.42 483L926.87 436.625H919.695V483H889.77V360.15H939.995C949.678 360.15 957.903 361.842 964.67 365.225C971.553 368.608 976.687 373.275 980.07 379.225C983.453 385.058 985.145 391.592 985.145 398.825C985.145 406.992 982.812 414.283 978.145 420.7C973.595 427.117 966.828 431.667 957.845 434.35L986.195 483H952.42ZM919.695 415.45H938.245C943.728 415.45 947.812 414.108 950.495 411.425C953.295 408.742 954.695 404.95 954.695 400.05C954.695 395.383 953.295 391.708 950.495 389.025C947.812 386.342 943.728 385 938.245 385H919.695V415.45ZM1033.33 360.15V433.65C1033.33 441 1035.14 446.658 1038.76 450.625C1042.37 454.592 1047.68 456.575 1054.68 456.575C1061.68 456.575 1067.05 454.592 1070.78 450.625C1074.51 446.658 1076.38 441 1076.38 433.65V360.15H1106.31V433.475C1106.31 444.442 1103.97 453.717 1099.31 461.3C1094.64 468.883 1088.34 474.6 1080.41 478.45C1072.59 482.3 1063.84 484.225 1054.16 484.225C1044.47 484.225 1035.78 482.358 1028.08 478.625C1020.5 474.775 1014.49 469.058 1010.06 461.475C1005.62 453.775 1003.41 444.442 1003.41 433.475V360.15H1033.33ZM1157.24 459.9H1196.44V483H1127.32V360.15H1157.24V459.9ZM1240.64 384.125V408.975H1280.72V432.075H1240.64V459.025H1285.97V483H1210.72V360.15H1285.97V384.125H1240.64ZM1349.84 484.225C1340.86 484.225 1332.81 482.767 1325.69 479.85C1318.58 476.933 1312.86 472.617 1308.54 466.9C1304.34 461.183 1302.13 454.3 1301.89 446.25H1333.74C1334.21 450.8 1335.79 454.3 1338.47 456.75C1341.15 459.083 1344.65 460.25 1348.97 460.25C1353.4 460.25 1356.9 459.258 1359.47 457.275C1362.04 455.175 1363.32 452.317 1363.32 448.7C1363.32 445.667 1362.27 443.158 1360.17 441.175C1358.19 439.192 1355.68 437.558 1352.64 436.275C1349.73 434.992 1345.53 433.533 1340.04 431.9C1332.11 429.45 1325.64 427 1320.62 424.55C1315.6 422.1 1311.29 418.483 1307.67 413.7C1304.05 408.917 1302.24 402.675 1302.24 394.975C1302.24 383.542 1306.39 374.617 1314.67 368.2C1322.95 361.667 1333.74 358.4 1347.04 358.4C1360.58 358.4 1371.49 361.667 1379.77 368.2C1388.05 374.617 1392.49 383.6 1393.07 395.15H1360.69C1360.46 391.183 1359 388.092 1356.32 385.875C1353.64 383.542 1350.19 382.375 1345.99 382.375C1342.38 382.375 1339.46 383.367 1337.24 385.35C1335.03 387.217 1333.92 389.958 1333.92 393.575C1333.92 397.542 1335.79 400.633 1339.52 402.85C1343.25 405.067 1349.09 407.458 1357.02 410.025C1364.95 412.708 1371.37 415.275 1376.27 417.725C1381.29 420.175 1385.6 423.733 1389.22 428.4C1392.84 433.067 1394.64 439.075 1394.64 446.425C1394.64 453.425 1392.84 459.783 1389.22 465.5C1385.72 471.217 1380.59 475.767 1373.82 479.15C1367.05 482.533 1359.06 484.225 1349.84 484.225ZM1526.62 461.3H1480.77L1473.42 483H1442.1L1486.55 360.15H1521.2L1565.65 483H1533.97L1526.62 461.3ZM1518.92 438.2L1503.7 393.225L1488.65 438.2H1518.92ZM1689.07 483H1659.15L1609.1 407.225V483H1579.17V360.15H1609.1L1659.15 436.275V360.15H1689.07V483ZM1756.79 360.15C1769.74 360.15 1781.06 362.717 1790.74 367.85C1800.42 372.983 1807.89 380.217 1813.14 389.55C1818.51 398.767 1821.19 409.442 1821.19 421.575C1821.19 433.592 1818.51 444.267 1813.14 453.6C1807.89 462.933 1800.37 470.167 1790.57 475.3C1780.88 480.433 1769.62 483 1756.79 483H1710.77V360.15H1756.79ZM1754.87 457.1C1766.18 457.1 1774.99 454.008 1781.29 447.825C1787.59 441.642 1790.74 432.892 1790.74 421.575C1790.74 410.258 1787.59 401.45 1781.29 395.15C1774.99 388.85 1766.18 385.7 1754.87 385.7H1740.69V457.1H1754.87ZM134.5 746L108.95 699.625H101.775V746H71.85V623.15H122.075C131.758 623.15 139.983 624.842 146.75 628.225C153.633 631.608 158.767 636.275 162.15 642.225C165.533 648.058 167.225 654.592 167.225 661.825C167.225 669.992 164.892 677.283 160.225 683.7C155.675 690.117 148.908 694.667 139.925 697.35L168.275 746H134.5ZM101.775 678.45H120.325C125.808 678.45 129.892 677.108 132.575 674.425C135.375 671.742 136.775 667.95 136.775 663.05C136.775 658.383 135.375 654.708 132.575 652.025C129.892 649.342 125.808 648 120.325 648H101.775V678.45ZM215.935 647.125V671.975H256.01V695.075H215.935V722.025H261.26V746H186.01V623.15H261.26V647.125H215.935ZM362.238 662C360.021 657.917 356.813 654.825 352.613 652.725C348.53 650.508 343.688 649.4 338.088 649.4C328.405 649.4 320.646 652.608 314.813 659.025C308.98 665.325 306.063 673.783 306.063 684.4C306.063 695.717 309.096 704.583 315.163 711C321.346 717.3 329.805 720.45 340.538 720.45C347.888 720.45 354.071 718.583 359.088 714.85C364.221 711.117 367.955 705.75 370.288 698.75H332.313V676.7H397.413V704.525C395.196 711.992 391.405 718.933 386.038 725.35C380.788 731.767 374.08 736.958 365.913 740.925C357.746 744.892 348.53 746.875 338.263 746.875C326.13 746.875 315.28 744.25 305.713 739C296.263 733.633 288.855 726.225 283.488 716.775C278.238 707.325 275.613 696.533 275.613 684.4C275.613 672.267 278.238 661.475 283.488 652.025C288.855 642.458 296.263 635.05 305.713 629.8C315.163 624.433 325.955 621.75 338.088 621.75C352.788 621.75 365.155 625.308 375.188 632.425C385.338 639.542 392.046 649.4 395.313 662H362.238ZM443.389 623.15V696.65C443.389 704 445.197 709.658 448.814 713.625C452.43 717.592 457.739 719.575 464.739 719.575C471.739 719.575 477.105 717.592 480.839 713.625C484.572 709.658 486.439 704 486.439 696.65V623.15H516.364V696.475C516.364 707.442 514.03 716.717 509.364 724.3C504.697 731.883 498.397 737.6 490.464 741.45C482.647 745.3 473.897 747.225 464.214 747.225C454.53 747.225 445.839 745.358 438.139 741.625C430.555 737.775 424.547 732.058 420.114 724.475C415.68 716.775 413.464 707.442 413.464 696.475V623.15H443.389ZM567.302 722.9H606.502V746H537.377V623.15H567.302V722.9ZM697.251 724.3H651.401L644.051 746H612.726L657.176 623.15H691.826L736.276 746H704.601L697.251 724.3ZM689.551 701.2L674.326 656.225L659.276 701.2H689.551ZM838.179 623.15V647.125H805.629V746H775.704V647.125H743.154V623.15H838.179ZM883.123 623.15V746H853.198V623.15H883.123ZM962.909 747.225C951.359 747.225 940.742 744.542 931.059 739.175C921.492 733.808 913.851 726.342 908.134 716.775C902.534 707.092 899.734 696.242 899.734 684.225C899.734 672.208 902.534 661.417 908.134 651.85C913.851 642.283 921.492 634.817 931.059 629.45C940.742 624.083 951.359 621.4 962.909 621.4C974.459 621.4 985.017 624.083 994.584 629.45C1004.27 634.817 1011.85 642.283 1017.33 651.85C1022.93 661.417 1025.73 672.208 1025.73 684.225C1025.73 696.242 1022.93 707.092 1017.33 716.775C1011.73 726.342 1004.15 733.808 994.584 739.175C985.017 744.542 974.459 747.225 962.909 747.225ZM962.909 719.925C972.709 719.925 980.526 716.658 986.359 710.125C992.309 703.592 995.284 694.958 995.284 684.225C995.284 673.375 992.309 664.742 986.359 658.325C980.526 651.792 972.709 648.525 962.909 648.525C952.992 648.525 945.059 651.733 939.109 658.15C933.276 664.567 930.359 673.258 930.359 684.225C930.359 695.075 933.276 703.767 939.109 710.3C945.059 716.717 952.992 719.925 962.909 719.925ZM1152.28 746H1122.36L1072.31 670.225V746H1042.38V623.15H1072.31L1122.36 699.275V623.15H1152.28V746ZM1218.42 747.225C1209.44 747.225 1201.39 745.767 1194.27 742.85C1187.16 739.933 1181.44 735.617 1177.12 729.9C1172.92 724.183 1170.71 717.3 1170.47 709.25H1202.32C1202.79 713.8 1204.37 717.3 1207.05 719.75C1209.73 722.083 1213.23 723.25 1217.55 723.25C1221.98 723.25 1225.48 722.258 1228.05 720.275C1230.62 718.175 1231.9 715.317 1231.9 711.7C1231.9 708.667 1230.85 706.158 1228.75 704.175C1226.77 702.192 1224.26 700.558 1221.22 699.275C1218.31 697.992 1214.11 696.533 1208.62 694.9C1200.69 692.45 1194.22 690 1189.2 687.55C1184.18 685.1 1179.87 681.483 1176.25 676.7C1172.63 671.917 1170.82 665.675 1170.82 657.975C1170.82 646.542 1174.97 637.617 1183.25 631.2C1191.53 624.667 1202.32 621.4 1215.62 621.4C1229.16 621.4 1240.07 624.667 1248.35 631.2C1256.63 637.617 1261.07 646.6 1261.65 658.15H1229.27C1229.04 654.183 1227.58 651.092 1224.9 648.875C1222.22 646.542 1218.77 645.375 1214.57 645.375C1210.96 645.375 1208.04 646.367 1205.82 648.35C1203.61 650.217 1202.5 652.958 1202.5 656.575C1202.5 660.542 1204.37 663.633 1208.1 665.85C1211.83 668.067 1217.67 670.458 1225.6 673.025C1233.53 675.708 1239.95 678.275 1244.85 680.725C1249.87 683.175 1254.18 686.733 1257.8 691.4C1261.42 696.067 1263.22 702.075 1263.22 709.425C1263.22 716.425 1261.42 722.783 1257.8 728.5C1254.3 734.217 1249.17 738.767 1242.4 742.15C1235.63 745.533 1227.64 747.225 1218.42 747.225Z" fill="#121629"/>
<rect x="49" y="824" width="2411" height="9" fill="#121629"/>
</g>
<defs>
<clipPath id="clip0_101_10">
<rect width="2525" height="859" fill="white"/>
</clipPath>
</defs>
</svg>
