<svg width="2525" height="771" viewBox="0 0 2525 771" fill="none" xmlns="http://www.w3.org/2000/svg">
<g clip-path="url(#clip0_86_9)">
<rect x="-94" width="2619" height="771" fill="#121629"/>
<ellipse cx="14" cy="697.5" rx="205" ry="328.5" fill="#101B52"/>
<ellipse cx="2470" cy="604.5" rx="205" ry="328.5" fill="#101B52"/>
<ellipse cx="5" cy="188" rx="214" ry="350" fill="#102071"/>
<path d="M338.332 298.575C326.782 298.575 316.432 296.7 307.282 292.95C298.132 289.2 290.782 283.65 285.232 276.3C279.832 268.95 276.982 260.1 276.682 249.75H317.632C318.232 255.6 320.257 260.1 323.707 263.25C327.157 266.25 331.657 267.75 337.207 267.75C342.907 267.75 347.407 266.475 350.707 263.925C354.007 261.225 355.657 257.55 355.657 252.9C355.657 249 354.307 245.775 351.607 243.225C349.057 240.675 345.832 238.575 341.932 236.925C338.182 235.275 332.782 233.4 325.732 231.3C315.532 228.15 307.207 225 300.757 221.85C294.307 218.7 288.757 214.05 284.107 207.9C279.457 201.75 277.132 193.725 277.132 183.825C277.132 169.125 282.457 157.65 293.107 149.4C303.757 141 317.632 136.8 334.732 136.8C352.132 136.8 366.157 141 376.807 149.4C387.457 157.65 393.157 169.2 393.907 184.05H352.282C351.982 178.95 350.107 174.975 346.657 172.125C343.207 169.125 338.782 167.625 333.382 167.625C328.732 167.625 324.982 168.9 322.132 171.45C319.282 173.85 317.857 177.375 317.857 182.025C317.857 187.125 320.257 191.1 325.057 193.95C329.857 196.8 337.357 199.875 347.557 203.175C357.757 206.625 366.007 209.925 372.307 213.075C378.757 216.225 384.307 220.8 388.957 226.8C393.607 232.8 395.932 240.525 395.932 249.975C395.932 258.975 393.607 267.15 388.957 274.5C384.457 281.85 377.857 287.7 369.157 292.05C360.457 296.4 350.182 298.575 338.332 298.575ZM533.235 139.05V169.875H491.385V297H452.91V169.875H411.06V139.05H533.235ZM650.87 269.1H591.92L582.47 297H542.195L599.345 139.05H643.895L701.045 297H660.32L650.87 269.1ZM640.97 239.4L621.395 181.575L602.045 239.4H640.97ZM832.063 139.05V169.875H790.213V297H751.738V169.875H709.888V139.05H832.063ZM889.848 169.875V201.825H941.373V231.525H889.848V266.175H948.123V297H851.373V139.05H948.123V169.875H889.848ZM966.576 217.8C966.576 202.2 969.951 188.325 976.701 176.175C983.451 163.875 992.826 154.35 1004.83 147.6C1016.98 140.7 1030.7 137.25 1046 137.25C1064.75 137.25 1080.8 142.2 1094.15 152.1C1107.5 162 1116.43 175.5 1120.93 192.6H1078.63C1075.48 186 1070.98 180.975 1065.13 177.525C1059.43 174.075 1052.9 172.35 1045.55 172.35C1033.7 172.35 1024.1 176.475 1016.75 184.725C1009.4 192.975 1005.73 204 1005.73 217.8C1005.73 231.6 1009.4 242.625 1016.75 250.875C1024.1 259.125 1033.7 263.25 1045.55 263.25C1052.9 263.25 1059.43 261.525 1065.13 258.075C1070.98 254.625 1075.48 249.6 1078.63 243H1120.93C1116.43 260.1 1107.5 273.6 1094.15 283.5C1080.8 293.25 1064.75 298.125 1046 298.125C1030.7 298.125 1016.98 294.75 1004.83 288C992.826 281.1 983.451 271.575 976.701 259.425C969.951 247.275 966.576 233.4 966.576 217.8ZM1225.04 297L1192.19 237.375H1182.96V297H1144.49V139.05H1209.06C1221.51 139.05 1232.09 141.225 1240.79 145.575C1249.64 149.925 1256.24 155.925 1260.59 163.575C1264.94 171.075 1267.11 179.475 1267.11 188.775C1267.11 199.275 1264.11 208.65 1258.11 216.9C1252.26 225.15 1243.56 231 1232.01 234.45L1268.46 297H1225.04ZM1182.96 210.15H1206.81C1213.86 210.15 1219.11 208.425 1222.56 204.975C1226.16 201.525 1227.96 196.65 1227.96 190.35C1227.96 184.35 1226.16 179.625 1222.56 176.175C1219.11 172.725 1213.86 171 1206.81 171H1182.96V210.15ZM1389.59 269.1H1330.64L1321.19 297H1280.92L1338.07 139.05H1382.62L1439.77 297H1399.04L1389.59 269.1ZM1379.69 239.4L1360.12 181.575L1340.77 239.4H1379.69ZM1559.98 139.05V169.875H1495.63V203.175H1543.78V233.1H1495.63V297H1457.16V139.05H1559.98ZM1693.83 139.05V169.875H1651.98V297H1613.51V169.875H1571.66V139.05H1693.83ZM1897.62 139.05V297H1859.15V231.975H1799.3V297H1760.82V139.05H1799.3V200.925H1859.15V139.05H1897.62ZM2023.72 269.1H1964.77L1955.32 297H1915.05L1972.2 139.05H2016.75L2073.9 297H2033.17L2023.72 269.1ZM2013.82 239.4L1994.25 181.575L1974.9 239.4H2013.82ZM2148.44 298.575C2136.89 298.575 2126.54 296.7 2117.39 292.95C2108.24 289.2 2100.89 283.65 2095.34 276.3C2089.94 268.95 2087.09 260.1 2086.79 249.75H2127.74C2128.34 255.6 2130.36 260.1 2133.81 263.25C2137.26 266.25 2141.76 267.75 2147.31 267.75C2153.01 267.75 2157.51 266.475 2160.81 263.925C2164.11 261.225 2165.76 257.55 2165.76 252.9C2165.76 249 2164.41 245.775 2161.71 243.225C2159.16 240.675 2155.94 238.575 2152.04 236.925C2148.29 235.275 2142.89 233.4 2135.84 231.3C2125.64 228.15 2117.31 225 2110.86 221.85C2104.41 218.7 2098.86 214.05 2094.21 207.9C2089.56 201.75 2087.24 193.725 2087.24 183.825C2087.24 169.125 2092.56 157.65 2103.21 149.4C2113.86 141 2127.74 136.8 2144.84 136.8C2162.24 136.8 2176.26 141 2186.91 149.4C2197.56 157.65 2203.26 169.2 2204.01 184.05H2162.39C2162.09 178.95 2160.21 174.975 2156.76 172.125C2153.31 169.125 2148.89 167.625 2143.49 167.625C2138.84 167.625 2135.09 168.9 2132.24 171.45C2129.39 173.85 2127.96 177.375 2127.96 182.025C2127.96 187.125 2130.36 191.1 2135.16 193.95C2139.96 196.8 2147.46 199.875 2157.66 203.175C2167.86 206.625 2176.11 209.925 2182.41 213.075C2188.86 216.225 2194.41 220.8 2199.06 226.8C2203.71 232.8 2206.04 240.525 2206.04 249.975C2206.04 258.975 2203.71 267.15 2199.06 274.5C2194.56 281.85 2187.96 287.7 2179.26 292.05C2170.56 296.4 2160.29 298.575 2148.44 298.575ZM834.341 607.1H775.391L765.941 635H725.666L782.816 477.05H827.366L884.516 635H843.791L834.341 607.1ZM824.441 577.4L804.866 519.575L785.516 577.4H824.441ZM982.46 635L949.61 575.375H940.385V635H901.91V477.05H966.485C978.935 477.05 989.51 479.225 998.21 483.575C1007.06 487.925 1013.66 493.925 1018.01 501.575C1022.36 509.075 1024.53 517.475 1024.53 526.775C1024.53 537.275 1021.53 546.65 1015.53 554.9C1009.68 563.15 1000.98 569 989.435 572.45L1025.88 635H982.46ZM940.385 548.15H964.235C971.285 548.15 976.535 546.425 979.985 542.975C983.585 539.525 985.385 534.65 985.385 528.35C985.385 522.35 983.585 517.625 979.985 514.175C976.535 510.725 971.285 509 964.235 509H940.385V548.15ZM1129.24 635L1096.39 575.375H1087.16V635H1048.69V477.05H1113.26C1125.71 477.05 1136.29 479.225 1144.99 483.575C1153.84 487.925 1160.44 493.925 1164.79 501.575C1169.14 509.075 1171.31 517.475 1171.31 526.775C1171.31 537.275 1168.31 546.65 1162.31 554.9C1156.46 563.15 1147.76 569 1136.21 572.45L1172.66 635H1129.24ZM1087.16 548.15H1111.01C1118.06 548.15 1123.31 546.425 1126.76 542.975C1130.36 539.525 1132.16 534.65 1132.16 528.35C1132.16 522.35 1130.36 517.625 1126.76 514.175C1123.31 510.725 1118.06 509 1111.01 509H1087.16V548.15ZM1233.94 477.05V635H1195.46V477.05H1233.94ZM1410.1 477.05L1354.07 635H1305.92L1249.9 477.05H1290.85L1330 596.3L1369.37 477.05H1410.1ZM1464.65 507.875V539.825H1516.18V569.525H1464.65V604.175H1522.93V635H1426.18V477.05H1522.93V507.875H1464.65ZM1607.08 477.05C1623.73 477.05 1638.28 480.35 1650.73 486.95C1663.18 493.55 1672.78 502.85 1679.53 514.85C1686.43 526.7 1689.88 540.425 1689.88 556.025C1689.88 571.475 1686.43 585.2 1679.53 597.2C1672.78 609.2 1663.11 618.5 1650.51 625.1C1638.06 631.7 1623.58 635 1607.08 635H1547.91V477.05H1607.08ZM1604.61 601.7C1619.16 601.7 1630.48 597.725 1638.58 589.775C1646.68 581.825 1650.73 570.575 1650.73 556.025C1650.73 541.475 1646.68 530.15 1638.58 522.05C1630.48 513.95 1619.16 509.9 1604.61 509.9H1586.38V601.7H1604.61ZM1729.38 636.8C1722.63 636.8 1717.08 634.85 1712.73 630.95C1708.53 626.9 1706.43 621.95 1706.43 616.1C1706.43 610.1 1708.53 605.075 1712.73 601.025C1717.08 596.975 1722.63 594.95 1729.38 594.95C1735.98 594.95 1741.38 596.975 1745.58 601.025C1749.93 605.075 1752.11 610.1 1752.11 616.1C1752.11 621.95 1749.93 626.9 1745.58 630.95C1741.38 634.85 1735.98 636.8 1729.38 636.8Z" fill="white"/>
<ellipse cx="2461" cy="95" rx="214" ry="350" fill="#102071"/>
</g>
<defs>
<clipPath id="clip0_86_9">
<rect width="2525" height="771" fill="white"/>
</clipPath>
</defs>
</svg>
