<svg width="2525" height="771" viewBox="0 0 2525 771" fill="none" xmlns="http://www.w3.org/2000/svg">
<g clip-path="url(#clip0_86_9)">
<rect x="-94" width="2619" height="771" fill="#121629"/>
<ellipse cx="14" cy="697.5" rx="205" ry="328.5" fill="#101B52"/>
<ellipse cx="2470" cy="604.5" rx="205" ry="328.5" fill="#101B52"/>
<ellipse cx="5" cy="188" rx="214" ry="350" fill="#102071"/>
<path d="M438.684 288.4C428.418 288.4 419.218 286.733 411.084 283.4C402.951 280.067 396.418 275.133 391.484 268.6C386.684 262.067 384.151 254.2 383.884 245H420.284C420.818 250.2 422.618 254.2 425.684 257C428.751 259.667 432.751 261 437.684 261C442.751 261 446.751 259.867 449.684 257.6C452.618 255.2 454.084 251.933 454.084 247.8C454.084 244.333 452.884 241.467 450.484 239.2C448.218 236.933 445.351 235.067 441.884 233.6C438.551 232.133 433.751 230.467 427.484 228.6C418.418 225.8 411.018 223 405.284 220.2C399.551 217.4 394.618 213.267 390.484 207.8C386.351 202.333 384.284 195.2 384.284 186.4C384.284 173.333 389.018 163.133 398.484 155.8C407.951 148.333 420.284 144.6 435.484 144.6C450.951 144.6 463.418 148.333 472.884 155.8C482.351 163.133 487.418 173.4 488.084 186.6H451.084C450.818 182.067 449.151 178.533 446.084 176C443.018 173.333 439.084 172 434.284 172C430.151 172 426.818 173.133 424.284 175.4C421.751 177.533 420.484 180.667 420.484 184.8C420.484 189.333 422.618 192.867 426.884 195.4C431.151 197.933 437.818 200.667 446.884 203.6C455.951 206.667 463.284 209.6 468.884 212.4C474.618 215.2 479.551 219.267 483.684 224.6C487.818 229.933 489.884 236.8 489.884 245.2C489.884 253.2 487.818 260.467 483.684 267C479.684 273.533 473.818 278.733 466.084 282.6C458.351 286.467 449.218 288.4 438.684 288.4ZM611.931 146.6V174H574.731V287H540.531V174H503.331V146.6H611.931ZM716.495 262.2H664.095L655.695 287H619.895L670.695 146.6H710.295L761.095 287H724.895L716.495 262.2ZM707.695 235.8L690.295 184.4L673.095 235.8H707.695ZM877.556 146.6V174H840.356V287H806.156V174H768.956V146.6H877.556ZM928.92 174V202.4H974.72V228.8H928.92V259.6H980.72V287H894.72V146.6H980.72V174H928.92ZM997.123 216.6C997.123 202.733 1000.12 190.4 1006.12 179.6C1012.12 168.667 1020.46 160.2 1031.12 154.2C1041.92 148.067 1054.12 145 1067.72 145C1084.39 145 1098.66 149.4 1110.52 158.2C1122.39 167 1130.32 179 1134.32 194.2H1096.72C1093.92 188.333 1089.92 183.867 1084.72 180.8C1079.66 177.733 1073.86 176.2 1067.32 176.2C1056.79 176.2 1048.26 179.867 1041.72 187.2C1035.19 194.533 1031.92 204.333 1031.92 216.6C1031.92 228.867 1035.19 238.667 1041.72 246C1048.26 253.333 1056.79 257 1067.32 257C1073.86 257 1079.66 255.467 1084.72 252.4C1089.92 249.333 1093.92 244.867 1096.72 239H1134.32C1130.32 254.2 1122.39 266.2 1110.52 275C1098.66 283.667 1084.39 288 1067.72 288C1054.12 288 1041.92 285 1031.12 279C1020.46 272.867 1012.12 264.4 1006.12 253.6C1000.12 242.8 997.123 230.467 997.123 216.6ZM1226.87 287L1197.67 234H1189.47V287H1155.27V146.6H1212.67C1223.73 146.6 1233.13 148.533 1240.87 152.4C1248.73 156.267 1254.6 161.6 1258.47 168.4C1262.33 175.067 1264.27 182.533 1264.27 190.8C1264.27 200.133 1261.6 208.467 1256.27 215.8C1251.07 223.133 1243.33 228.333 1233.07 231.4L1265.47 287H1226.87ZM1189.47 209.8H1210.67C1216.93 209.8 1221.6 208.267 1224.67 205.2C1227.87 202.133 1229.47 197.8 1229.47 192.2C1229.47 186.867 1227.87 182.667 1224.67 179.6C1221.6 176.533 1216.93 175 1210.67 175H1189.47V209.8ZM1373.14 262.2H1320.74L1312.34 287H1276.54L1327.34 146.6H1366.94L1417.74 287H1381.54L1373.14 262.2ZM1364.34 235.8L1346.94 184.4L1329.74 235.8H1364.34ZM1524.6 146.6V174H1467.4V203.6H1510.2V230.2H1467.4V287H1433.2V146.6H1524.6ZM1643.57 146.6V174H1606.37V287H1572.17V174H1534.97V146.6H1643.57ZM1824.72 146.6V287H1790.52V229.2H1737.32V287H1703.12V146.6H1737.32V201.6H1790.52V146.6H1824.72ZM1936.81 262.2H1884.41L1876.01 287H1840.21L1891.01 146.6H1930.61L1981.41 287H1945.21L1936.81 262.2ZM1928.01 235.8L1910.61 184.4L1893.41 235.8H1928.01ZM2047.67 288.4C2037.4 288.4 2028.2 286.733 2020.07 283.4C2011.94 280.067 2005.4 275.133 2000.47 268.6C1995.67 262.067 1993.14 254.2 1992.87 245H2029.27C2029.8 250.2 2031.6 254.2 2034.67 257C2037.74 259.667 2041.74 261 2046.67 261C2051.74 261 2055.74 259.867 2058.67 257.6C2061.6 255.2 2063.07 251.933 2063.07 247.8C2063.07 244.333 2061.87 241.467 2059.47 239.2C2057.2 236.933 2054.34 235.067 2050.87 233.6C2047.54 232.133 2042.74 230.467 2036.47 228.6C2027.4 225.8 2020 223 2014.27 220.2C2008.54 217.4 2003.6 213.267 1999.47 207.8C1995.34 202.333 1993.27 195.2 1993.27 186.4C1993.27 173.333 1998 163.133 2007.47 155.8C2016.94 148.333 2029.27 144.6 2044.47 144.6C2059.94 144.6 2072.4 148.333 2081.87 155.8C2091.34 163.133 2096.4 173.4 2097.07 186.6H2060.07C2059.8 182.067 2058.14 178.533 2055.07 176C2052 173.333 2048.07 172 2043.27 172C2039.14 172 2035.8 173.133 2033.27 175.4C2030.74 177.533 2029.47 180.667 2029.47 184.8C2029.47 189.333 2031.6 192.867 2035.87 195.4C2040.14 197.933 2046.8 200.667 2055.87 203.6C2064.94 206.667 2072.27 209.6 2077.87 212.4C2083.6 215.2 2088.54 219.267 2092.67 224.6C2096.8 229.933 2098.87 236.8 2098.87 245.2C2098.87 253.2 2096.8 260.467 2092.67 267C2088.67 273.533 2082.8 278.733 2075.07 282.6C2067.34 286.467 2058.2 288.4 2047.67 288.4ZM879.581 562.2H827.181L818.781 587H782.981L833.781 446.6H873.381L924.181 587H887.981L879.581 562.2ZM870.781 535.8L853.381 484.4L836.181 535.8H870.781ZM1011.24 587L982.042 534H973.842V587H939.642V446.6H997.042C1008.11 446.6 1017.51 448.533 1025.24 452.4C1033.11 456.267 1038.98 461.6 1042.84 468.4C1046.71 475.067 1048.64 482.533 1048.64 490.8C1048.64 500.133 1045.98 508.467 1040.64 515.8C1035.44 523.133 1027.71 528.333 1017.44 531.4L1049.84 587H1011.24ZM973.842 509.8H995.042C1001.31 509.8 1005.98 508.267 1009.04 505.2C1012.24 502.133 1013.84 497.8 1013.84 492.2C1013.84 486.867 1012.24 482.667 1009.04 479.6C1005.98 476.533 1001.31 475 995.042 475H973.842V509.8ZM1141.71 587L1112.51 534H1104.31V587H1070.11V446.6H1127.51C1138.58 446.6 1147.98 448.533 1155.71 452.4C1163.58 456.267 1169.44 461.6 1173.31 468.4C1177.18 475.067 1179.11 482.533 1179.11 490.8C1179.11 500.133 1176.44 508.467 1171.11 515.8C1165.91 523.133 1158.18 528.333 1147.91 531.4L1180.31 587H1141.71ZM1104.31 509.8H1125.51C1131.78 509.8 1136.44 508.267 1139.51 505.2C1142.71 502.133 1144.31 497.8 1144.31 492.2C1144.31 486.867 1142.71 482.667 1139.51 479.6C1136.44 476.533 1131.78 475 1125.51 475H1104.31V509.8ZM1234.78 446.6V587H1200.58V446.6H1234.78ZM1391.36 446.6L1341.56 587H1298.76L1248.96 446.6H1285.36L1320.16 552.6L1355.16 446.6H1391.36ZM1439.86 474V502.4H1485.66V528.8H1439.86V559.6H1491.66V587H1405.66V446.6H1491.66V474H1439.86ZM1566.46 446.6C1581.26 446.6 1594.19 449.533 1605.26 455.4C1616.33 461.267 1624.86 469.533 1630.86 480.2C1636.99 490.733 1640.06 502.933 1640.06 516.8C1640.06 530.533 1636.99 542.733 1630.86 553.4C1624.86 564.067 1616.26 572.333 1605.06 578.2C1593.99 584.067 1581.13 587 1566.46 587H1513.86V446.6H1566.46ZM1564.26 557.4C1577.19 557.4 1587.26 553.867 1594.46 546.8C1601.66 539.733 1605.26 529.733 1605.26 516.8C1605.26 503.867 1601.66 493.8 1594.46 486.6C1587.26 479.4 1577.19 475.8 1564.26 475.8H1548.06V557.4H1564.26ZM1675.17 588.6C1669.17 588.6 1664.24 586.867 1660.37 583.4C1656.64 579.8 1654.77 575.4 1654.77 570.2C1654.77 564.867 1656.64 560.4 1660.37 556.8C1664.24 553.2 1669.17 551.4 1675.17 551.4C1681.04 551.4 1685.84 553.2 1689.57 556.8C1693.44 560.4 1695.37 564.867 1695.37 570.2C1695.37 575.4 1693.44 579.8 1689.57 583.4C1685.84 586.867 1681.04 588.6 1675.17 588.6Z" fill="white"/>
<ellipse cx="2461" cy="95" rx="214" ry="350" fill="#102071"/>
</g>
<defs>
<clipPath id="clip0_86_9">
<rect width="2525" height="771" fill="white"/>
</clipPath>
</defs>
</svg>
