<svg width="473" height="630" viewBox="0 0 473 630" fill="none" xmlns="http://www.w3.org/2000/svg">
<rect width="472.5" height="630" fill="white"/>
<path d="M89.6364 228.417C89.3097 225.123 87.9076 222.564 85.43 220.74C82.9525 218.916 79.5902 218.004 75.343 218.004C72.4571 218.004 70.0205 218.412 68.033 219.229C66.0456 220.018 64.521 221.121 63.4592 222.537C62.4246 223.952 61.9073 225.559 61.9073 227.355C61.8529 228.853 62.166 230.16 62.8466 231.276C63.5545 232.392 64.521 233.359 65.7461 234.175C66.9712 234.965 68.387 235.659 69.9933 236.258C71.5996 236.83 73.3148 237.32 75.1389 237.728L82.6531 239.525C86.3013 240.342 89.65 241.431 92.6992 242.792C95.7485 244.154 98.3893 245.828 100.622 247.815C102.854 249.803 104.583 252.144 105.808 254.839C107.061 257.535 107.7 260.625 107.728 264.11C107.7 269.228 106.394 273.666 103.807 277.423C101.248 281.153 97.5453 284.052 92.6992 286.121C87.8803 288.163 82.0677 289.184 75.2614 289.184C68.5095 289.184 62.6288 288.15 57.6193 286.081C52.6371 284.011 48.7438 280.949 45.9396 276.892C43.1626 272.808 41.7061 267.758 41.57 261.741H58.6811C58.8717 264.545 59.6748 266.887 61.0906 268.765C62.5335 270.617 64.4529 272.019 66.8487 272.972C69.2718 273.897 72.0079 274.36 75.0572 274.36C78.052 274.36 80.652 273.924 82.8572 273.053C85.0897 272.182 86.8185 270.971 88.0437 269.419C89.2688 267.867 89.8814 266.084 89.8814 264.069C89.8814 262.19 89.3233 260.611 88.207 259.332C87.118 258.052 85.5117 256.963 83.3881 256.065C81.2918 255.166 78.719 254.349 75.6697 253.614L66.5629 251.327C59.5115 249.612 53.9439 246.931 49.8601 243.282C45.7763 239.634 43.748 234.72 43.7752 228.54C43.748 223.476 45.0956 219.052 47.8182 215.267C50.5679 211.483 54.3387 208.529 59.1303 206.406C63.922 204.282 69.3671 203.22 75.4656 203.22C81.6729 203.22 87.0908 204.282 91.7191 206.406C96.3746 208.529 99.9956 211.483 102.582 215.267C105.168 219.052 106.502 223.435 106.584 228.417H89.6364ZM116.436 218.943V204.364H185.126V218.943H159.521V288H142.042V218.943H116.436ZM248.098 204.364H265.781V258.678C265.781 264.777 264.325 270.113 261.411 274.687C258.526 279.261 254.483 282.827 249.283 285.386C244.083 287.918 238.025 289.184 231.11 289.184C224.167 289.184 218.096 287.918 212.896 285.386C207.696 282.827 203.653 279.261 200.767 274.687C197.881 270.113 196.438 264.777 196.438 258.678V204.364H214.121V257.167C214.121 260.353 214.815 263.184 216.204 265.662C217.619 268.139 219.607 270.086 222.166 271.501C224.725 272.917 227.706 273.625 231.11 273.625C234.54 273.625 237.521 272.917 240.053 271.501C242.612 270.086 244.586 268.139 245.975 265.662C247.39 263.184 248.098 260.353 248.098 257.167V204.364ZM309.978 288H280.33V204.364H310.223C318.636 204.364 325.878 206.038 331.949 209.387C338.02 212.708 342.689 217.486 345.957 223.721C349.251 229.955 350.898 237.415 350.898 246.1C350.898 254.812 349.251 262.299 345.957 268.561C342.689 274.823 337.993 279.628 331.867 282.977C325.769 286.326 318.472 288 309.978 288ZM298.013 272.849H309.243C314.47 272.849 318.867 271.923 322.434 270.072C326.028 268.194 328.723 265.294 330.52 261.374C332.344 257.426 333.256 252.335 333.256 246.1C333.256 239.92 332.344 234.87 330.52 230.949C328.723 227.029 326.041 224.143 322.475 222.292C318.908 220.44 314.511 219.515 309.284 219.515H298.013V272.849ZM354.042 204.364H373.849L392.92 240.383H393.737L412.808 204.364H432.615L402.109 258.433V288H384.548V258.433L354.042 204.364ZM119.882 370.398C119.31 368.411 118.507 366.655 117.473 365.13C116.438 363.578 115.172 362.272 113.675 361.21C112.205 360.121 110.517 359.29 108.611 358.719C106.732 358.147 104.649 357.861 102.363 357.861C98.0881 357.861 94.331 358.923 91.0912 361.047C87.8786 363.17 85.3739 366.26 83.577 370.317C81.7801 374.346 80.8817 379.274 80.8817 385.1C80.8817 390.926 81.7665 395.881 83.5362 399.965C85.3058 404.049 87.8106 407.166 91.0504 409.317C94.2902 411.441 98.1154 412.502 102.526 412.502C106.528 412.502 109.945 411.795 112.776 410.379C115.635 408.936 117.813 406.908 119.31 404.294C120.835 401.68 121.597 398.59 121.597 395.024L125.191 395.555H103.629V382.241H138.627V392.778C138.627 400.129 137.075 406.445 133.971 411.727C130.867 416.981 126.593 421.038 121.148 423.896C115.703 426.728 109.468 428.143 102.444 428.143C94.6033 428.143 87.7153 426.415 81.7801 422.957C75.845 419.472 71.2167 414.531 67.8952 408.133C64.6009 401.708 62.9538 394.085 62.9538 385.263C62.9538 378.484 63.9339 372.44 65.8941 367.131C67.8816 361.795 70.6586 357.276 74.2251 353.573C77.7916 349.87 81.9435 347.053 86.6807 345.12C91.4179 343.187 96.5499 342.22 102.077 342.22C106.814 342.22 111.224 342.914 115.308 344.303C119.392 345.664 123.013 347.597 126.171 350.102C129.356 352.607 131.957 355.588 133.971 359.045C135.986 362.476 137.279 366.26 137.851 370.398H119.882ZM203.569 343.364H221.252V397.678C221.252 403.777 219.796 409.113 216.883 413.687C213.997 418.261 209.954 421.827 204.754 424.386C199.554 426.918 193.496 428.184 186.581 428.184C179.638 428.184 173.567 426.918 168.367 424.386C163.167 421.827 159.124 418.261 156.238 413.687C153.352 409.113 151.909 403.777 151.909 397.678V343.364H169.592V396.167C169.592 399.353 170.286 402.184 171.675 404.662C173.091 407.139 175.078 409.086 177.637 410.501C180.196 411.917 183.178 412.625 186.581 412.625C190.011 412.625 192.992 411.917 195.524 410.501C198.084 409.086 200.057 407.139 201.446 404.662C202.862 402.184 203.569 399.353 203.569 396.167V343.364ZM253.484 343.364V427H235.801V343.364H253.484ZM297.681 427H268.032V343.364H297.926C306.338 343.364 313.58 345.038 319.652 348.387C325.723 351.708 330.392 356.486 333.659 362.721C336.953 368.955 338.601 376.415 338.601 385.1C338.601 393.812 336.953 401.299 333.659 407.561C330.392 413.823 325.696 418.628 319.57 421.977C313.472 425.326 306.175 427 297.681 427ZM285.715 411.849H296.946C302.173 411.849 306.57 410.923 310.136 409.072C313.73 407.194 316.425 404.294 318.222 400.374C320.046 396.426 320.958 391.335 320.958 385.1C320.958 378.92 320.046 373.87 318.222 369.949C316.425 366.029 313.744 363.143 310.177 361.292C306.611 359.44 302.214 358.515 296.987 358.515H285.715V411.849ZM351.699 427V343.364H408.056V357.943H369.382V377.872H405.156V392.451H369.382V412.421H408.219V427H351.699Z" fill="black"/>
</svg>
