<svg width="1910" height="1063" viewBox="0 0 1910 1063" fill="none" xmlns="http://www.w3.org/2000/svg">
<rect width="1910" height="1062.53" fill="#FF8E25"/>
<rect x="455" y="170" width="991" height="723" fill="#943A3A"/>
<path d="M240.347 263.64V339.24C240.347 346.8 242.207 352.62 245.927 356.7C249.647 360.78 255.107 362.82 262.307 362.82C269.507 362.82 275.027 360.78 278.867 356.7C282.707 352.62 284.627 346.8 284.627 339.24V263.64H315.407V339.06C315.407 350.34 313.007 359.88 308.207 367.68C303.407 375.48 296.927 381.36 288.767 385.32C280.727 389.28 271.727 391.26 261.767 391.26C251.807 391.26 242.867 389.34 234.947 385.5C227.147 381.54 220.967 375.66 216.407 367.86C211.847 359.94 209.567 350.34 209.567 339.06V263.64H240.347ZM450.061 390H419.281L367.801 312.06V390H337.021V263.64H367.801L419.281 341.94V263.64H450.061V390ZM503.153 263.64V390H472.373V263.64H503.153ZM616.359 263.64V288.3H582.879V390H552.099V288.3H518.619V263.64H616.359ZM662.586 288.3V313.86H703.806V337.62H662.586V365.34H709.206V390H631.806V263.64H709.206V288.3H662.586ZM776.529 263.64C789.849 263.64 801.489 266.28 811.449 271.56C821.409 276.84 829.089 284.28 834.489 293.88C840.009 303.36 842.769 314.34 842.769 326.82C842.769 339.18 840.009 350.16 834.489 359.76C829.089 369.36 821.349 376.8 811.269 382.08C801.309 387.36 789.729 390 776.529 390H729.189V263.64H776.529ZM774.549 363.36C786.189 363.36 795.249 360.18 801.729 353.82C808.209 347.46 811.449 338.46 811.449 326.82C811.449 315.18 808.209 306.12 801.729 299.64C795.249 293.16 786.189 289.92 774.549 289.92H759.969V363.36H774.549ZM1011.16 390H980.375L928.895 312.06V390H898.115V263.64H928.895L980.375 341.94V263.64H1011.16V390ZM1112.13 367.68H1064.97L1057.41 390H1025.19L1070.91 263.64H1106.55L1152.27 390H1119.69L1112.13 367.68ZM1104.21 343.92L1088.55 297.66L1073.07 343.92H1104.21ZM1257.08 263.64V288.3H1223.6V390H1192.82V288.3H1159.34V263.64H1257.08ZM1303.31 263.64V390H1272.53V263.64H1303.31ZM1385.38 391.26C1373.5 391.26 1362.58 388.5 1352.62 382.98C1342.78 377.46 1334.92 369.78 1329.04 359.94C1323.28 349.98 1320.4 338.82 1320.4 326.46C1320.4 314.1 1323.28 303 1329.04 293.16C1334.92 283.32 1342.78 275.64 1352.62 270.12C1362.58 264.6 1373.5 261.84 1385.38 261.84C1397.26 261.84 1408.12 264.6 1417.96 270.12C1427.92 275.64 1435.72 283.32 1441.36 293.16C1447.12 303 1450 314.1 1450 326.46C1450 338.82 1447.12 349.98 1441.36 359.94C1435.6 369.78 1427.8 377.46 1417.96 382.98C1408.12 388.5 1397.26 391.26 1385.38 391.26ZM1385.38 363.18C1395.46 363.18 1403.5 359.82 1409.5 353.1C1415.62 346.38 1418.68 337.5 1418.68 326.46C1418.68 315.3 1415.62 306.42 1409.5 299.82C1403.5 293.1 1395.46 289.74 1385.38 289.74C1375.18 289.74 1367.02 293.04 1360.9 299.64C1354.9 306.24 1351.9 315.18 1351.9 326.46C1351.9 337.62 1354.9 346.56 1360.9 353.28C1367.02 359.88 1375.18 363.18 1385.38 363.18ZM1580.16 390H1549.38L1497.9 312.06V390H1467.12V263.64H1497.9L1549.38 341.94V263.64H1580.16V390ZM1648.19 391.26C1638.95 391.26 1630.67 389.76 1623.35 386.76C1616.03 383.76 1610.15 379.32 1605.71 373.44C1601.39 367.56 1599.11 360.48 1598.87 352.2H1631.63C1632.11 356.88 1633.73 360.48 1636.49 363C1639.25 365.4 1642.85 366.6 1647.29 366.6C1651.85 366.6 1655.45 365.58 1658.09 363.54C1660.73 361.38 1662.05 358.44 1662.05 354.72C1662.05 351.6 1660.97 349.02 1658.81 346.98C1656.77 344.94 1654.19 343.26 1651.07 341.94C1648.07 340.62 1643.75 339.12 1638.11 337.44C1629.95 334.92 1623.29 332.4 1618.13 329.88C1612.97 327.36 1608.53 323.64 1604.81 318.72C1601.09 313.8 1599.23 307.38 1599.23 299.46C1599.23 287.7 1603.49 278.52 1612.01 271.92C1620.53 265.2 1631.63 261.84 1645.31 261.84C1659.23 261.84 1670.45 265.2 1678.97 271.92C1687.49 278.52 1692.05 287.76 1692.65 299.64H1659.35C1659.11 295.56 1657.61 292.38 1654.85 290.1C1652.09 287.7 1648.55 286.5 1644.23 286.5C1640.51 286.5 1637.51 287.52 1635.23 289.56C1632.95 291.48 1631.81 294.3 1631.81 298.02C1631.81 302.1 1633.73 305.28 1637.57 307.56C1641.41 309.84 1647.41 312.3 1655.57 314.94C1663.73 317.7 1670.33 320.34 1675.37 322.86C1680.53 325.38 1684.97 329.04 1688.69 333.84C1692.41 338.64 1694.27 344.82 1694.27 352.38C1694.27 359.58 1692.41 366.12 1688.69 372C1685.09 377.88 1679.81 382.56 1672.85 386.04C1665.89 389.52 1657.67 391.26 1648.19 391.26ZM377.907 533.64V660H347.127V607.98H299.247V660H268.467V533.64H299.247V583.14H347.127V533.64H377.907ZM430.367 533.64V609.24C430.367 616.8 432.227 622.62 435.947 626.7C439.667 630.78 445.127 632.82 452.327 632.82C459.527 632.82 465.047 630.78 468.887 626.7C472.727 622.62 474.647 616.8 474.647 609.24V533.64H505.427V609.06C505.427 620.34 503.027 629.88 498.227 637.68C493.427 645.48 486.947 651.36 478.787 655.32C470.747 659.28 461.747 661.26 451.787 661.26C441.827 661.26 432.887 659.34 424.967 655.5C417.167 651.54 410.987 645.66 406.427 637.86C401.867 629.94 399.587 620.34 399.587 609.06V533.64H430.367ZM670.141 533.64V660H639.361V584.22L611.101 660H586.261L557.821 584.04V660H527.041V533.64H563.401L598.861 621.12L633.961 533.64H670.141ZM770.935 637.68H723.775L716.215 660H683.995L729.715 533.64H765.355L811.075 660H778.495L770.935 637.68ZM763.015 613.92L747.355 567.66L731.875 613.92H763.015ZM938.03 660H907.25L855.77 582.06V660H824.99V533.64H855.77L907.25 611.94V533.64H938.03V660ZM1062.93 660L1036.65 612.3H1029.27V660H998.486V533.64H1050.15C1060.11 533.64 1068.57 535.38 1075.53 538.86C1082.61 542.34 1087.89 547.14 1091.37 553.26C1094.85 559.26 1096.59 565.98 1096.59 573.42C1096.59 581.82 1094.19 589.32 1089.39 595.92C1084.71 602.52 1077.75 607.2 1068.51 609.96L1097.67 660H1062.93ZM1029.27 590.52H1048.35C1053.99 590.52 1058.19 589.14 1060.95 586.38C1063.83 583.62 1065.27 579.72 1065.27 574.68C1065.27 569.88 1063.83 566.1 1060.95 563.34C1058.19 560.58 1053.99 559.2 1048.35 559.2H1029.27V590.52ZM1146.69 533.64V660H1115.91V533.64H1146.69ZM1252.87 573.6C1250.59 569.4 1247.29 566.22 1242.97 564.06C1238.77 561.78 1233.79 560.64 1228.03 560.64C1218.07 560.64 1210.09 563.94 1204.09 570.54C1198.09 577.02 1195.09 585.72 1195.09 596.64C1195.09 608.28 1198.21 617.4 1204.45 624C1210.81 630.48 1219.51 633.72 1230.55 633.72C1238.11 633.72 1244.47 631.8 1249.63 627.96C1254.91 624.12 1258.75 618.6 1261.15 611.4H1222.09V588.72H1289.05V617.34C1286.77 625.02 1282.87 632.16 1277.35 638.76C1271.95 645.36 1265.05 650.7 1256.65 654.78C1248.25 658.86 1238.77 660.9 1228.21 660.9C1215.73 660.9 1204.57 658.2 1194.73 652.8C1185.01 647.28 1177.39 639.66 1171.87 629.94C1166.47 620.22 1163.77 609.12 1163.77 596.64C1163.77 584.16 1166.47 573.06 1171.87 563.34C1177.39 553.5 1185.01 545.88 1194.73 540.48C1204.45 534.96 1215.55 532.2 1228.03 532.2C1243.15 532.2 1255.87 535.86 1266.19 543.18C1276.63 550.5 1283.53 560.64 1286.89 573.6H1252.87ZM1415.54 533.64V660H1384.76V607.98H1336.88V660H1306.1V533.64H1336.88V583.14H1384.76V533.64H1415.54ZM1528.66 533.64V558.3H1495.18V660H1464.4V558.3H1430.92V533.64H1528.66ZM1589.83 661.26C1580.59 661.26 1572.31 659.76 1564.99 656.76C1557.67 653.76 1551.79 649.32 1547.35 643.44C1543.03 637.56 1540.75 630.48 1540.51 622.2H1573.27C1573.75 626.88 1575.37 630.48 1578.13 633C1580.89 635.4 1584.49 636.6 1588.93 636.6C1593.49 636.6 1597.09 635.58 1599.73 633.54C1602.37 631.38 1603.69 628.44 1603.69 624.72C1603.69 621.6 1602.61 619.02 1600.45 616.98C1598.41 614.94 1595.83 613.26 1592.71 611.94C1589.71 610.62 1585.39 609.12 1579.75 607.44C1571.59 604.92 1564.93 602.4 1559.77 599.88C1554.61 597.36 1550.17 593.64 1546.45 588.72C1542.73 583.8 1540.87 577.38 1540.87 569.46C1540.87 557.7 1545.13 548.52 1553.65 541.92C1562.17 535.2 1573.27 531.84 1586.95 531.84C1600.87 531.84 1612.09 535.2 1620.61 541.92C1629.13 548.52 1633.69 557.76 1634.29 569.64H1600.99C1600.75 565.56 1599.25 562.38 1596.49 560.1C1593.73 557.7 1590.19 556.5 1585.87 556.5C1582.15 556.5 1579.15 557.52 1576.87 559.56C1574.59 561.48 1573.45 564.3 1573.45 568.02C1573.45 572.1 1575.37 575.28 1579.21 577.56C1583.05 579.84 1589.05 582.3 1597.21 584.94C1605.37 587.7 1611.97 590.34 1617.01 592.86C1622.17 595.38 1626.61 599.04 1630.33 603.84C1634.05 608.64 1635.91 614.82 1635.91 622.38C1635.91 629.58 1634.05 636.12 1630.33 642C1626.73 647.88 1621.45 652.56 1614.49 656.04C1607.53 659.52 1599.31 661.26 1589.83 661.26ZM548.012 866.64C548.012 854.16 550.712 843.06 556.112 833.34C561.512 823.5 569.012 815.88 578.612 810.48C588.332 804.96 599.312 802.2 611.552 802.2C626.552 802.2 639.392 806.16 650.072 814.08C660.752 822 667.892 832.8 671.492 846.48H637.652C635.132 841.2 631.532 837.18 626.852 834.42C622.292 831.66 617.072 830.28 611.192 830.28C601.712 830.28 594.032 833.58 588.152 840.18C582.272 846.78 579.332 855.6 579.332 866.64C579.332 877.68 582.272 886.5 588.152 893.1C594.032 899.7 601.712 903 611.192 903C617.072 903 622.292 901.62 626.852 898.86C631.532 896.1 635.132 892.08 637.652 886.8H671.492C667.892 900.48 660.752 911.28 650.072 919.2C639.392 927 626.552 930.9 611.552 930.9C599.312 930.9 588.332 928.2 578.612 922.8C569.012 917.28 561.512 909.66 556.112 899.94C550.712 890.22 548.012 879.12 548.012 866.64ZM750.102 931.26C738.222 931.26 727.302 928.5 717.342 922.98C707.502 917.46 699.642 909.78 693.762 899.94C688.002 889.98 685.122 878.82 685.122 866.46C685.122 854.1 688.002 843 693.762 833.16C699.642 823.32 707.502 815.64 717.342 810.12C727.302 804.6 738.222 801.84 750.102 801.84C761.982 801.84 772.842 804.6 782.682 810.12C792.642 815.64 800.442 823.32 806.082 833.16C811.842 843 814.722 854.1 814.722 866.46C814.722 878.82 811.842 889.98 806.082 899.94C800.322 909.78 792.522 917.46 782.682 922.98C772.842 928.5 761.982 931.26 750.102 931.26ZM750.102 903.18C760.182 903.18 768.222 899.82 774.222 893.1C780.342 886.38 783.402 877.5 783.402 866.46C783.402 855.3 780.342 846.42 774.222 839.82C768.222 833.1 760.182 829.74 750.102 829.74C739.902 829.74 731.742 833.04 725.622 839.64C719.622 846.24 716.622 855.18 716.622 866.46C716.622 877.62 719.622 886.56 725.622 893.28C731.742 899.88 739.902 903.18 750.102 903.18ZM862.086 803.64V879.24C862.086 886.8 863.946 892.62 867.666 896.7C871.386 900.78 876.846 902.82 884.046 902.82C891.246 902.82 896.766 900.78 900.606 896.7C904.446 892.62 906.366 886.8 906.366 879.24V803.64H937.146V879.06C937.146 890.34 934.746 899.88 929.946 907.68C925.146 915.48 918.666 921.36 910.506 925.32C902.466 929.28 893.466 931.26 883.506 931.26C873.546 931.26 864.606 929.34 856.686 925.5C848.886 921.54 842.706 915.66 838.146 907.86C833.586 899.94 831.306 890.34 831.306 879.06V803.64H862.086ZM1071.8 930H1041.02L989.54 852.06V930H958.76V803.64H989.54L1041.02 881.94V803.64H1071.8V930ZM1088.89 866.64C1088.89 854.16 1091.59 843.06 1096.99 833.34C1102.39 823.5 1109.89 815.88 1119.49 810.48C1129.21 804.96 1140.19 802.2 1152.43 802.2C1167.43 802.2 1180.27 806.16 1190.95 814.08C1201.63 822 1208.77 832.8 1212.37 846.48H1178.53C1176.01 841.2 1172.41 837.18 1167.73 834.42C1163.17 831.66 1157.95 830.28 1152.07 830.28C1142.59 830.28 1134.91 833.58 1129.03 840.18C1123.15 846.78 1120.21 855.6 1120.21 866.64C1120.21 877.68 1123.15 886.5 1129.03 893.1C1134.91 899.7 1142.59 903 1152.07 903C1157.95 903 1163.17 901.62 1167.73 898.86C1172.41 896.1 1176.01 892.08 1178.53 886.8H1212.37C1208.77 900.48 1201.63 911.28 1190.95 919.2C1180.27 927 1167.43 930.9 1152.43 930.9C1140.19 930.9 1129.21 928.2 1119.49 922.8C1109.89 917.28 1102.39 909.66 1096.99 899.94C1091.59 890.22 1088.89 879.12 1088.89 866.64ZM1262 803.64V930H1231.22V803.64H1262ZM1315.09 906.24H1355.41V930H1284.31V803.64H1315.09V906.24Z" fill="white"/>
</svg>
