<svg width="1910" height="1063" viewBox="0 0 1910 1063" fill="none" xmlns="http://www.w3.org/2000/svg">
<rect width="1910" height="1062.53" fill="#2BB3D1"/>
<rect x="455" y="170" width="991" height="723" fill="#423A94"/>
<path d="M220.621 343.13V420.83C220.621 428.6 222.532 434.582 226.356 438.775C230.179 442.968 235.791 445.065 243.191 445.065C250.591 445.065 256.264 442.968 260.211 438.775C264.157 434.582 266.131 428.6 266.131 420.83V343.13H297.766V420.645C297.766 432.238 295.299 442.043 290.366 450.06C285.432 458.077 278.772 464.12 270.386 468.19C262.122 472.26 252.872 474.295 242.636 474.295C232.399 474.295 223.211 472.322 215.071 468.375C207.054 464.305 200.702 458.262 196.016 450.245C191.329 442.105 188.986 432.238 188.986 420.645V343.13H220.621ZM436.16 473H404.525L351.615 392.895V473H319.98V343.13H351.615L404.525 423.605V343.13H436.16V473ZM490.727 343.13V473H459.092V343.13H490.727ZM607.077 343.13V368.475H572.667V473H541.032V368.475H506.622V343.13H607.077ZM654.589 368.475V394.745H696.954V419.165H654.589V447.655H702.504V473H622.954V343.13H702.504V368.475H654.589ZM771.697 343.13C785.387 343.13 797.35 345.843 807.587 351.27C817.823 356.697 825.717 364.343 831.267 374.21C836.94 383.953 839.777 395.238 839.777 408.065C839.777 420.768 836.94 432.053 831.267 441.92C825.717 451.787 817.762 459.433 807.402 464.86C797.165 470.287 785.263 473 771.697 473H723.042V343.13H771.697ZM769.662 445.62C781.625 445.62 790.937 442.352 797.597 435.815C804.257 429.278 807.587 420.028 807.587 408.065C807.587 396.102 804.257 386.79 797.597 380.13C790.937 373.47 781.625 370.14 769.662 370.14H754.677V445.62H769.662ZM1012.84 473H981.205L928.295 392.895V473H896.66V343.13H928.295L981.205 423.605V343.13H1012.84V473ZM1116.62 450.06H1068.15L1060.38 473H1027.26L1074.25 343.13H1110.88L1157.87 473H1124.39L1116.62 450.06ZM1108.48 425.64L1092.38 378.095L1076.47 425.64H1108.48ZM1265.6 343.13V368.475H1231.19V473H1199.55V368.475H1165.14V343.13H1265.6ZM1313.11 343.13V473H1281.47V343.13H1313.11ZM1397.45 474.295C1385.24 474.295 1374.02 471.458 1363.78 465.785C1353.67 460.112 1345.59 452.218 1339.55 442.105C1333.63 431.868 1330.67 420.398 1330.67 407.695C1330.67 394.992 1333.63 383.583 1339.55 373.47C1345.59 363.357 1353.67 355.463 1363.78 349.79C1374.02 344.117 1385.24 341.28 1397.45 341.28C1409.66 341.28 1420.83 344.117 1430.94 349.79C1441.18 355.463 1449.19 363.357 1454.99 373.47C1460.91 383.583 1463.87 394.992 1463.87 407.695C1463.87 420.398 1460.91 431.868 1454.99 442.105C1449.07 452.218 1441.05 460.112 1430.94 465.785C1420.83 471.458 1409.66 474.295 1397.45 474.295ZM1397.45 445.435C1407.81 445.435 1416.08 441.982 1422.24 435.075C1428.53 428.168 1431.68 419.042 1431.68 407.695C1431.68 396.225 1428.53 387.098 1422.24 380.315C1416.08 373.408 1407.81 369.955 1397.45 369.955C1386.97 369.955 1378.58 373.347 1372.29 380.13C1366.13 386.913 1363.04 396.102 1363.04 407.695C1363.04 419.165 1366.13 428.353 1372.29 435.26C1378.58 442.043 1386.97 445.435 1397.45 445.435ZM1597.65 473H1566.01L1513.1 392.895V473H1481.47V343.13H1513.1L1566.01 423.605V343.13H1597.65V473ZM1667.57 474.295C1658.07 474.295 1649.56 472.753 1642.04 469.67C1634.52 466.587 1628.47 462.023 1623.91 455.98C1619.47 449.937 1617.13 442.66 1616.88 434.15H1650.55C1651.04 438.96 1652.71 442.66 1655.55 445.25C1658.38 447.717 1662.08 448.95 1666.65 448.95C1671.33 448.95 1675.03 447.902 1677.75 445.805C1680.46 443.585 1681.82 440.563 1681.82 436.74C1681.82 433.533 1680.71 430.882 1678.49 428.785C1676.39 426.688 1673.74 424.962 1670.53 423.605C1667.45 422.248 1663.01 420.707 1657.21 418.98C1648.82 416.39 1641.98 413.8 1636.68 411.21C1631.37 408.62 1626.81 404.797 1622.99 399.74C1619.16 394.683 1617.25 388.085 1617.25 379.945C1617.25 367.858 1621.63 358.423 1630.39 351.64C1639.14 344.733 1650.55 341.28 1664.61 341.28C1678.92 341.28 1690.45 344.733 1699.21 351.64C1707.96 358.423 1712.65 367.92 1713.27 380.13H1679.04C1678.79 375.937 1677.25 372.668 1674.42 370.325C1671.58 367.858 1667.94 366.625 1663.5 366.625C1659.68 366.625 1656.59 367.673 1654.25 369.77C1651.91 371.743 1650.74 374.642 1650.74 378.465C1650.74 382.658 1652.71 385.927 1656.66 388.27C1660.6 390.613 1666.77 393.142 1675.16 395.855C1683.54 398.692 1690.33 401.405 1695.51 403.995C1700.81 406.585 1705.37 410.347 1709.2 415.28C1713.02 420.213 1714.93 426.565 1714.93 434.335C1714.93 441.735 1713.02 448.457 1709.2 454.5C1705.5 460.543 1700.07 465.353 1692.92 468.93C1685.76 472.507 1677.31 474.295 1667.57 474.295ZM122.622 752.295C113.125 752.295 104.615 750.753 97.0921 747.67C89.5688 744.587 83.5254 740.023 78.9621 733.98C74.5221 727.937 72.1788 720.66 71.9321 712.15H105.602C106.095 716.96 107.76 720.66 110.597 723.25C113.434 725.717 117.134 726.95 121.697 726.95C126.384 726.95 130.084 725.902 132.797 723.805C135.51 721.585 136.867 718.563 136.867 714.74C136.867 711.533 135.757 708.882 133.537 706.785C131.44 704.688 128.789 702.962 125.582 701.605C122.499 700.248 118.059 698.707 112.262 696.98C103.875 694.39 97.0304 691.8 91.7271 689.21C86.4238 686.62 81.8604 682.797 78.0371 677.74C74.2138 672.683 72.3021 666.085 72.3021 657.945C72.3021 645.858 76.6804 636.423 85.4371 629.64C94.1938 622.733 105.602 619.28 119.662 619.28C133.969 619.28 145.5 622.733 154.257 629.64C163.014 636.423 167.7 645.92 168.317 658.13H134.092C133.845 653.937 132.304 650.668 129.467 648.325C126.63 645.858 122.992 644.625 118.552 644.625C114.729 644.625 111.645 645.673 109.302 647.77C106.959 649.743 105.787 652.642 105.787 656.465C105.787 660.658 107.76 663.927 111.707 666.27C115.654 668.613 121.82 671.142 130.207 673.855C138.594 676.692 145.377 679.405 150.557 681.995C155.86 684.585 160.424 688.347 164.247 693.28C168.07 698.213 169.982 704.565 169.982 712.335C169.982 719.735 168.07 726.457 164.247 732.5C160.547 738.543 155.12 743.353 147.967 746.93C140.814 750.507 132.365 752.295 122.622 752.295ZM221.085 646.475V672.745H263.45V697.165H221.085V725.655H269V751H189.45V621.13H269V646.475H221.085ZM284.173 685.88C284.173 673.053 286.948 661.645 292.498 651.655C298.048 641.542 305.757 633.71 315.623 628.16C325.613 622.487 336.898 619.65 349.478 619.65C364.895 619.65 378.092 623.72 389.068 631.86C400.045 640 407.383 651.1 411.083 665.16H376.303C373.713 659.733 370.013 655.602 365.203 652.765C360.517 649.928 355.152 648.51 349.108 648.51C339.365 648.51 331.472 651.902 325.428 658.685C319.385 665.468 316.363 674.533 316.363 685.88C316.363 697.227 319.385 706.292 325.428 713.075C331.472 719.858 339.365 723.25 349.108 723.25C355.152 723.25 360.517 721.832 365.203 718.995C370.013 716.158 373.713 712.027 376.303 706.6H411.083C407.383 720.66 400.045 731.76 389.068 739.9C378.092 747.917 364.895 751.925 349.478 751.925C336.898 751.925 325.613 749.15 315.623 743.6C305.757 737.927 298.048 730.095 292.498 720.105C286.948 710.115 284.173 698.707 284.173 685.88ZM461.536 621.13V698.83C461.536 706.6 463.448 712.582 467.271 716.775C471.095 720.968 476.706 723.065 484.106 723.065C491.506 723.065 497.18 720.968 501.126 716.775C505.073 712.582 507.046 706.6 507.046 698.83V621.13H538.681V698.645C538.681 710.238 536.215 720.043 531.281 728.06C526.348 736.077 519.688 742.12 511.301 746.19C503.038 750.26 493.788 752.295 483.551 752.295C473.315 752.295 464.126 750.322 455.986 746.375C447.97 742.305 441.618 736.262 436.931 728.245C432.245 720.105 429.901 710.238 429.901 698.645V621.13H461.536ZM627.126 751L600.116 701.975H592.531V751H560.896V621.13H613.991C624.227 621.13 632.922 622.918 640.076 626.495C647.352 630.072 652.779 635.005 656.356 641.295C659.932 647.462 661.721 654.368 661.721 662.015C661.721 670.648 659.254 678.357 654.321 685.14C649.511 691.923 642.357 696.733 632.861 699.57L662.831 751H627.126ZM592.531 679.59H612.141C617.937 679.59 622.254 678.172 625.091 675.335C628.051 672.498 629.531 668.49 629.531 663.31C629.531 658.377 628.051 654.492 625.091 651.655C622.254 648.818 617.937 647.4 612.141 647.4H592.531V679.59ZM713.214 621.13V751H681.579V621.13H713.214ZM829.565 621.13V646.475H795.155V751H763.52V646.475H729.11V621.13H829.565ZM956.812 621.13L911.857 708.08V751H880.222V708.08L835.267 621.13H871.157L896.317 675.52L921.292 621.13H956.812ZM1003.4 685.88C1003.4 673.053 1006.17 661.645 1011.72 651.655C1017.27 641.542 1024.98 633.71 1034.85 628.16C1044.84 622.487 1056.12 619.65 1068.7 619.65C1084.12 619.65 1097.32 623.72 1108.29 631.86C1119.27 640 1126.61 651.1 1130.31 665.16H1095.53C1092.94 659.733 1089.24 655.602 1084.43 652.765C1079.74 649.928 1074.38 648.51 1068.33 648.51C1058.59 648.51 1050.7 651.902 1044.65 658.685C1038.61 665.468 1035.59 674.533 1035.59 685.88C1035.59 697.227 1038.61 706.292 1044.65 713.075C1050.7 719.858 1058.59 723.25 1068.33 723.25C1074.38 723.25 1079.74 721.832 1084.43 718.995C1089.24 716.158 1092.94 712.027 1095.53 706.6H1130.31C1126.61 720.66 1119.27 731.76 1108.29 739.9C1097.32 747.917 1084.12 751.925 1068.7 751.925C1056.12 751.925 1044.84 749.15 1034.85 743.6C1024.98 737.927 1017.27 730.095 1011.72 720.105C1006.17 710.115 1003.4 698.707 1003.4 685.88ZM1211.1 752.295C1198.89 752.295 1187.67 749.458 1177.43 743.785C1167.32 738.112 1159.24 730.218 1153.19 720.105C1147.27 709.868 1144.31 698.398 1144.31 685.695C1144.31 672.992 1147.27 661.583 1153.19 651.47C1159.24 641.357 1167.32 633.463 1177.43 627.79C1187.67 622.117 1198.89 619.28 1211.1 619.28C1223.31 619.28 1234.47 622.117 1244.58 627.79C1254.82 633.463 1262.84 641.357 1268.63 651.47C1274.55 661.583 1277.51 672.992 1277.51 685.695C1277.51 698.398 1274.55 709.868 1268.63 720.105C1262.71 730.218 1254.7 738.112 1244.58 743.785C1234.47 749.458 1223.31 752.295 1211.1 752.295ZM1211.1 723.435C1221.46 723.435 1229.72 719.982 1235.89 713.075C1242.18 706.168 1245.32 697.042 1245.32 685.695C1245.32 674.225 1242.18 665.098 1235.89 658.315C1229.72 651.408 1221.46 647.955 1211.1 647.955C1200.62 647.955 1192.23 651.347 1185.94 658.13C1179.77 664.913 1176.69 674.102 1176.69 685.695C1176.69 697.165 1179.77 706.353 1185.94 713.26C1192.23 720.043 1200.62 723.435 1211.1 723.435ZM1326.19 621.13V698.83C1326.19 706.6 1328.11 712.582 1331.93 716.775C1335.75 720.968 1341.36 723.065 1348.76 723.065C1356.16 723.065 1361.84 720.968 1365.78 716.775C1369.73 712.582 1371.7 706.6 1371.7 698.83V621.13H1403.34V698.645C1403.34 710.238 1400.87 720.043 1395.94 728.06C1391.01 736.077 1384.35 742.12 1375.96 746.19C1367.7 750.26 1358.45 752.295 1348.21 752.295C1337.97 752.295 1328.78 750.322 1320.64 746.375C1312.63 742.305 1306.28 736.262 1301.59 728.245C1296.9 720.105 1294.56 710.238 1294.56 698.645V621.13H1326.19ZM1541.73 751H1510.1L1457.19 670.895V751H1425.55V621.13H1457.19L1510.1 701.605V621.13H1541.73V751ZM1559.3 685.88C1559.3 673.053 1562.08 661.645 1567.63 651.655C1573.18 641.542 1580.88 633.71 1590.75 628.16C1600.74 622.487 1612.03 619.65 1624.61 619.65C1640.02 619.65 1653.22 623.72 1664.2 631.86C1675.17 640 1682.51 651.1 1686.21 665.16H1651.43C1648.84 659.733 1645.14 655.602 1640.33 652.765C1635.64 649.928 1630.28 648.51 1624.24 648.51C1614.49 648.51 1606.6 651.902 1600.56 658.685C1594.51 665.468 1591.49 674.533 1591.49 685.88C1591.49 697.227 1594.51 706.292 1600.56 713.075C1606.6 719.858 1614.49 723.25 1624.24 723.25C1630.28 723.25 1635.64 721.832 1640.33 718.995C1645.14 716.158 1648.84 712.027 1651.43 706.6H1686.21C1682.51 720.66 1675.17 731.76 1664.2 739.9C1653.22 747.917 1640.02 751.925 1624.61 751.925C1612.03 751.925 1600.74 749.15 1590.75 743.6C1580.88 737.927 1573.18 730.095 1567.63 720.105C1562.08 710.115 1559.3 698.707 1559.3 685.88ZM1737.22 621.13V751H1705.58V621.13H1737.22ZM1791.78 726.58H1833.22V751H1760.14V621.13H1791.78V726.58Z" fill="white"/>
</svg>
