<svg width="1910" height="1063" viewBox="0 0 1910 1063" fill="none" xmlns="http://www.w3.org/2000/svg">
<rect width="1910" height="1062.53" fill="#8325FF"/>
<rect x="502" y="263" width="911" height="552" fill="#633A94"/>
<path d="M569.02 343.64L524.2 470H485.68L440.86 343.64H473.62L504.94 439.04L536.44 343.64H569.02ZM612.665 368.3V393.86H653.885V417.62H612.665V445.34H659.285V470H581.885V343.64H659.285V368.3H612.665ZM743.707 470L717.427 422.3H710.047V470H679.267V343.64H730.927C740.887 343.64 749.347 345.38 756.307 348.86C763.387 352.34 768.667 357.14 772.147 363.26C775.627 369.26 777.367 375.98 777.367 383.42C777.367 391.82 774.967 399.32 770.167 405.92C765.487 412.52 758.527 417.2 749.287 419.96L778.447 470H743.707ZM710.047 400.52H729.127C734.767 400.52 738.967 399.14 741.727 396.38C744.607 393.62 746.047 389.72 746.047 384.68C746.047 379.88 744.607 376.1 741.727 373.34C738.967 370.58 734.767 369.2 729.127 369.2H710.047V400.52ZM842.409 471.26C833.169 471.26 824.889 469.76 817.569 466.76C810.249 463.76 804.369 459.32 799.929 453.44C795.609 447.56 793.329 440.48 793.089 432.2H825.849C826.329 436.88 827.949 440.48 830.709 443C833.469 445.4 837.069 446.6 841.509 446.6C846.069 446.6 849.669 445.58 852.309 443.54C854.949 441.38 856.269 438.44 856.269 434.72C856.269 431.6 855.189 429.02 853.029 426.98C850.989 424.94 848.409 423.26 845.289 421.94C842.289 420.62 837.969 419.12 832.329 417.44C824.169 414.92 817.509 412.4 812.349 409.88C807.189 407.36 802.749 403.64 799.029 398.72C795.309 393.8 793.449 387.38 793.449 379.46C793.449 367.7 797.709 358.52 806.229 351.92C814.749 345.2 825.849 341.84 839.529 341.84C853.449 341.84 864.669 345.2 873.189 351.92C881.709 358.52 886.269 367.76 886.869 379.64H853.569C853.329 375.56 851.829 372.38 849.069 370.1C846.309 367.7 842.769 366.5 838.449 366.5C834.729 366.5 831.729 367.52 829.449 369.56C827.169 371.48 826.029 374.3 826.029 378.02C826.029 382.1 827.949 385.28 831.789 387.56C835.629 389.84 841.629 392.3 849.789 394.94C857.949 397.7 864.549 400.34 869.589 402.86C874.749 405.38 879.189 409.04 882.909 413.84C886.629 418.64 888.489 424.82 888.489 432.38C888.489 439.58 886.629 446.12 882.909 452C879.309 457.88 874.029 462.56 867.069 466.04C860.109 469.52 851.889 471.26 842.409 471.26ZM986.091 447.68H938.931L931.371 470H899.151L944.871 343.64H980.511L1026.23 470H993.651L986.091 447.68ZM978.171 423.92L962.511 377.66L947.031 423.92H978.171ZM1070.93 343.64V470H1040.15V343.64H1070.93ZM1124.01 446.24H1164.33V470H1093.23V343.64H1124.01V446.24ZM1209.79 446.24H1250.11V470H1179.01V343.64H1209.79V446.24ZM1295.57 368.3V393.86H1336.79V417.62H1295.57V445.34H1342.19V470H1264.79V343.64H1342.19V368.3H1295.57ZM1407.9 471.26C1398.66 471.26 1390.38 469.76 1383.06 466.76C1375.74 463.76 1369.86 459.32 1365.42 453.44C1361.1 447.56 1358.82 440.48 1358.58 432.2H1391.34C1391.82 436.88 1393.44 440.48 1396.2 443C1398.96 445.4 1402.56 446.6 1407 446.6C1411.56 446.6 1415.16 445.58 1417.8 443.54C1420.44 441.38 1421.76 438.44 1421.76 434.72C1421.76 431.6 1420.68 429.02 1418.52 426.98C1416.48 424.94 1413.9 423.26 1410.78 421.94C1407.78 420.62 1403.46 419.12 1397.82 417.44C1389.66 414.92 1383 412.4 1377.84 409.88C1372.68 407.36 1368.24 403.64 1364.52 398.72C1360.8 393.8 1358.94 387.38 1358.94 379.46C1358.94 367.7 1363.2 358.52 1371.72 351.92C1380.24 345.2 1391.34 341.84 1405.02 341.84C1418.94 341.84 1430.16 345.2 1438.68 351.92C1447.2 358.52 1451.76 367.76 1452.36 379.64H1419.06C1418.82 375.56 1417.32 372.38 1414.56 370.1C1411.8 367.7 1408.26 366.5 1403.94 366.5C1400.22 366.5 1397.22 367.52 1394.94 369.56C1392.66 371.48 1391.52 374.3 1391.52 378.02C1391.52 382.1 1393.44 385.28 1397.28 387.56C1401.12 389.84 1407.12 392.3 1415.28 394.94C1423.44 397.7 1430.04 400.34 1435.08 402.86C1440.24 405.38 1444.68 409.04 1448.4 413.84C1452.12 418.64 1453.98 424.82 1453.98 432.38C1453.98 439.58 1452.12 446.12 1448.4 452C1444.8 457.88 1439.52 462.56 1432.56 466.04C1425.6 469.52 1417.38 471.26 1407.9 471.26ZM569.314 717.68H522.154L514.594 740H482.374L528.094 613.64H563.734L609.454 740H576.874L569.314 717.68ZM561.394 693.92L545.734 647.66L530.254 693.92H561.394ZM669.089 741.26C659.849 741.26 651.569 739.76 644.249 736.76C636.929 733.76 631.049 729.32 626.609 723.44C622.289 717.56 620.009 710.48 619.769 702.2H652.529C653.009 706.88 654.629 710.48 657.389 713C660.149 715.4 663.749 716.6 668.189 716.6C672.749 716.6 676.349 715.58 678.989 713.54C681.629 711.38 682.949 708.44 682.949 704.72C682.949 701.6 681.869 699.02 679.709 696.98C677.669 694.94 675.089 693.26 671.969 691.94C668.969 690.62 664.649 689.12 659.009 687.44C650.849 684.92 644.189 682.4 639.029 679.88C633.869 677.36 629.429 673.64 625.709 668.72C621.989 663.8 620.129 657.38 620.129 649.46C620.129 637.7 624.389 628.52 632.909 621.92C641.429 615.2 652.529 611.84 666.209 611.84C680.129 611.84 691.349 615.2 699.869 621.92C708.389 628.52 712.949 637.76 713.549 649.64H680.249C680.009 645.56 678.509 642.38 675.749 640.1C672.989 637.7 669.449 636.5 665.129 636.5C661.409 636.5 658.409 637.52 656.129 639.56C653.849 641.48 652.709 644.3 652.709 648.02C652.709 652.1 654.629 655.28 658.469 657.56C662.309 659.84 668.309 662.3 676.469 664.94C684.629 667.7 691.229 670.34 696.269 672.86C701.429 675.38 705.869 679.04 709.589 683.84C713.309 688.64 715.169 694.82 715.169 702.38C715.169 709.58 713.309 716.12 709.589 722C705.989 727.88 700.709 732.56 693.749 736.04C686.789 739.52 678.569 741.26 669.089 741.26ZM779.831 741.26C770.591 741.26 762.311 739.76 754.991 736.76C747.671 733.76 741.791 729.32 737.351 723.44C733.031 717.56 730.751 710.48 730.511 702.2H763.271C763.751 706.88 765.371 710.48 768.131 713C770.891 715.4 774.491 716.6 778.931 716.6C783.491 716.6 787.091 715.58 789.731 713.54C792.371 711.38 793.691 708.44 793.691 704.72C793.691 701.6 792.611 699.02 790.451 696.98C788.411 694.94 785.831 693.26 782.711 691.94C779.711 690.62 775.391 689.12 769.751 687.44C761.591 684.92 754.931 682.4 749.771 679.88C744.611 677.36 740.171 673.64 736.451 668.72C732.731 663.8 730.871 657.38 730.871 649.46C730.871 637.7 735.131 628.52 743.651 621.92C752.171 615.2 763.271 611.84 776.951 611.84C790.871 611.84 802.091 615.2 810.611 621.92C819.131 628.52 823.691 637.76 824.291 649.64H790.991C790.751 645.56 789.251 642.38 786.491 640.1C783.731 637.7 780.191 636.5 775.871 636.5C772.151 636.5 769.151 637.52 766.871 639.56C764.591 641.48 763.451 644.3 763.451 648.02C763.451 652.1 765.371 655.28 769.211 657.56C773.051 659.84 779.051 662.3 787.211 664.94C795.371 667.7 801.971 670.34 807.011 672.86C812.171 675.38 816.611 679.04 820.331 683.84C824.051 688.64 825.911 694.82 825.911 702.38C825.911 709.58 824.051 716.12 820.331 722C816.731 727.88 811.451 732.56 804.491 736.04C797.531 739.52 789.311 741.26 779.831 741.26ZM875.633 638.3V663.86H916.853V687.62H875.633V715.34H922.253V740H844.853V613.64H922.253V638.3H875.633ZM1085.34 613.64V740H1054.56V664.22L1026.3 740H1001.46L973.016 664.04V740H942.236V613.64H978.596L1014.06 701.12L1049.16 613.64H1085.34ZM1183.97 675.2C1191.29 676.76 1197.17 680.42 1201.61 686.18C1206.05 691.82 1208.27 698.3 1208.27 705.62C1208.27 716.18 1204.55 724.58 1197.11 730.82C1189.79 736.94 1179.53 740 1166.33 740H1107.47V613.64H1164.35C1177.19 613.64 1187.21 616.58 1194.41 622.46C1201.73 628.34 1205.39 636.32 1205.39 646.4C1205.39 653.84 1203.41 660.02 1199.45 664.94C1195.61 669.86 1190.45 673.28 1183.97 675.2ZM1138.25 664.76H1158.41C1163.45 664.76 1167.29 663.68 1169.93 661.52C1172.69 659.24 1174.07 655.94 1174.07 651.62C1174.07 647.3 1172.69 644 1169.93 641.72C1167.29 639.44 1163.45 638.3 1158.41 638.3H1138.25V664.76ZM1160.93 715.16C1166.09 715.16 1170.05 714.02 1172.81 711.74C1175.69 709.34 1177.13 705.92 1177.13 701.48C1177.13 697.04 1175.63 693.56 1172.63 691.04C1169.75 688.52 1165.73 687.26 1160.57 687.26H1138.25V715.16H1160.93ZM1256.9 716.24H1297.22V740H1226.12V613.64H1256.9V716.24ZM1420.26 613.64L1376.52 698.24V740H1345.74V698.24L1302 613.64H1336.92L1361.4 666.56L1385.7 613.64H1420.26Z" fill="white"/>
</svg>
